<svg width="97" height="98" viewBox="0 0 97 98" fill="none" xmlns="http://www.w3.org/2000/svg">
<path d="M90.1852 97.3861C83.7844 97.3861 77.3837 97.3861 70.9829 97.3861C69.9923 96.8019 69.5859 95.9638 69.6367 94.7955C69.7129 93.5001 69.6113 92.2048 69.6621 90.9095C69.7891 88.2934 71.0337 86.3885 73.4213 85.3472C74.1071 85.0424 74.2595 84.7122 74.2595 84.0264C74.2341 80.6738 74.2341 77.3212 74.2341 73.9686C74.2341 73.3082 74.2341 72.6479 74.2341 71.8859C72.9133 71.8859 71.6687 71.9113 70.4495 71.8605C69.8145 71.8351 69.5097 72.0129 69.2557 72.6225C68.2397 74.9845 66.4109 76.4323 63.8456 76.7116C62.1438 76.8894 60.442 76.8132 58.7148 76.8386C57.4194 76.864 56.124 76.8386 54.8032 76.8386C54.7778 77.0926 54.7524 77.245 54.7524 77.3974C54.7524 79.9373 54.7524 82.4517 54.7524 84.9662C58.3338 86.5663 59.3752 88.1664 59.3752 92.027C59.3752 93.0176 59.3244 93.9827 59.4006 94.9732C59.4768 96.1162 59.045 96.9289 58.0036 97.4115C51.6029 97.4115 45.2021 97.4115 38.8013 97.4115C37.76 96.8527 37.379 96.0146 37.4552 94.8463C37.5314 93.6525 37.4552 92.4334 37.4806 91.2397C37.506 88.3696 38.8267 86.3631 41.4683 85.271C41.9763 85.0678 42.1033 84.7884 42.1033 84.2804C42.0779 82.2231 42.1033 80.1659 42.1033 78.1086C42.1033 77.7022 42.1033 77.3212 42.1033 76.8386C39.4363 76.8386 36.8964 76.8386 34.3818 76.8386C31.156 76.8386 28.8192 75.4163 27.4984 72.4193C27.3968 72.2161 27.1428 71.9113 26.965 71.9113C25.6189 71.8605 24.2727 71.8859 22.9519 71.8859C22.8757 72.0383 22.8249 72.1145 22.8249 72.1653C22.8249 76.2799 22.7995 80.3944 22.8249 84.509C22.8249 84.763 23.1805 85.1186 23.4599 85.2456C25.5934 86.1853 26.9904 87.76 27.2698 90.0713C27.473 91.6206 27.3206 93.2207 27.3968 94.8209C27.473 95.9892 27.0666 96.8273 26.0506 97.4115C19.6499 97.4115 13.2491 97.4115 6.84839 97.4115C5.9848 97.0051 5.426 96.3956 5.426 95.3542C5.4514 93.7795 5.3752 92.1794 5.4768 90.6047C5.6292 88.0648 6.97539 86.2615 9.31217 85.2964C9.97256 85.017 10.125 84.7122 10.125 84.0518C10.0996 70.8446 10.125 57.6119 10.125 44.4046C10.125 44.0998 10.125 43.795 10.125 43.414C6.94999 43.8966 4.00361 43.922 2.02242 40.925C1.89543 40.7472 1.66683 40.6456 1.56523 40.4424C1.28583 39.8074 0.803233 39.1471 0.803233 38.5121C0.752433 31.0449 0.777835 23.5523 0.777835 16.0851C0.777835 14.5358 4.00361 11.0816 5.553 10.9546C5.7816 10.9292 5.9848 10.9546 6.21339 10.9546C7.50878 10.9546 8.77877 10.9546 10.125 10.9546C10.125 8.23696 10.125 5.49391 10.125 2.72546C10.125 0.59198 10.6838 0.0332107 12.8427 0.0332107C15.3065 0.0332107 17.7957 0.0332107 20.2595 0.0332107C22.1899 0.0332107 22.7995 0.668175 22.7995 2.62387C22.7995 8.61794 22.7995 14.612 22.7995 20.5807C22.7995 20.9363 22.7995 21.3173 22.7995 21.6474C40.0205 21.6474 57.0892 21.6474 74.2341 21.6474C74.2341 21.2157 74.2341 20.8347 74.2341 20.4537C74.2341 14.4342 74.2341 8.41476 74.2341 2.39528C74.2341 0.693576 74.9199 0.0078125 76.5963 0.0078125C79.2632 0.0078125 81.9302 0.0078125 84.5718 0.0078125C86.1974 0.0078125 86.8832 0.693575 86.9086 2.31909C86.9086 4.88435 86.9086 7.44961 86.9086 10.0149C86.9086 10.3451 86.9086 10.6752 86.9086 11.0308C91.7346 10.4466 91.9631 10.5482 95.2397 13.8247C95.9509 14.5104 96.2557 15.247 96.2557 16.2629C96.2303 22.638 96.2303 29.013 96.2303 35.3627C96.2303 39.7567 96.2303 39.7566 93.0807 42.7791C92.9791 42.8553 92.9029 42.9823 92.8013 43.0331C92.395 43.2109 92.014 43.4903 91.6076 43.5156C90.0582 43.5664 88.5088 43.541 86.8832 43.541C86.8832 43.795 86.8832 44.1252 86.8832 44.4808C86.8832 48.0366 86.8832 51.567 86.8832 55.1228C86.8832 55.9356 86.7308 56.7483 85.9434 57.0531C85.3846 57.2817 84.648 57.3071 84.0638 57.1039C83.3272 56.8499 83.0478 56.1388 83.0478 55.326C83.0478 50.932 83.0478 46.5127 83.0478 42.1187C83.0478 41.7885 83.0478 41.433 83.0478 41.052C81.3206 41.052 79.695 41.052 78.0441 41.052C78.0441 55.6562 78.0441 70.1842 78.0441 84.6868C79.7458 84.6868 81.3714 84.6868 83.0478 84.6868C83.0478 84.2042 83.0478 83.7979 83.0478 83.3661C83.0478 79.6833 83.0478 76.0259 83.0478 72.3431C83.0478 70.9716 84.1146 70.0826 85.3338 70.362C86.2736 70.5652 86.8324 71.3525 86.8324 72.5971C86.8324 76.4069 86.8578 80.1913 86.8324 84.001C86.8324 84.636 86.9848 84.9662 87.6452 85.2202C89.982 86.1853 91.3282 87.9886 91.4806 90.5285C91.5822 91.9762 91.4806 93.4493 91.5314 94.8971C91.6584 96.0908 91.2519 96.9035 90.1852 97.3861ZM74.1833 32.8482C57.013 32.8482 39.9443 32.8482 22.8503 32.8482C22.8503 44.5824 22.8503 56.2657 22.8503 68.0507C24.1203 68.0507 25.3649 68.0253 26.584 68.0507C27.1174 68.0761 27.3714 67.8729 27.5492 67.3904C28.2096 65.6632 29.4288 64.3933 31.156 63.6822C31.791 63.4282 31.9688 63.098 31.9688 62.4376C31.9434 57.0277 31.9434 51.5924 31.9688 46.1825C31.9942 40.9758 35.6518 37.2422 40.8587 37.2168C45.9387 37.1914 50.9933 37.2168 56.0732 37.2168C57.7496 37.2168 59.3498 37.5724 60.7722 38.4867C63.5916 40.29 64.9378 42.8807 64.9378 46.2333C64.9124 51.6432 64.9378 57.0785 64.9378 62.4884C64.9378 62.9202 64.8362 63.3266 65.4458 63.5552C67.3507 64.2663 68.6461 65.6378 69.4335 67.5173C69.5351 67.7205 69.7891 68.0253 69.9923 68.0253C71.3893 68.0761 72.7609 68.0507 74.2087 68.0507C74.1833 56.2657 74.1833 44.5824 74.1833 32.8482ZM61.077 63.0472C61.1024 62.6916 61.1278 62.4376 61.1278 62.209C61.1278 56.8753 61.1532 51.567 61.1278 46.2333C61.1278 43.0077 59.1212 41.0266 55.8954 41.0266C50.9425 41.0266 46.0149 41.0266 41.0619 41.0266C37.7346 41.0266 35.7534 43.0077 35.7534 46.3603C35.7534 51.5924 35.7534 56.8245 35.7534 62.0312C35.7534 62.3614 35.7788 62.6916 35.8042 63.0472C44.2877 63.0472 52.6442 63.0472 61.077 63.0472ZM13.9603 28.886C37.0488 28.886 60.061 28.886 83.0732 28.886C83.0732 27.7431 83.0732 26.6764 83.0732 25.6096C60.0102 25.6096 36.998 25.6096 13.9603 25.6096C13.9603 26.7272 13.9603 27.7685 13.9603 28.886ZM14.0111 41.0774C14.0111 55.6816 14.0111 70.2096 14.0111 84.7376C15.6875 84.7376 17.2877 84.7376 18.9641 84.7376C18.9641 70.1588 18.9641 55.6562 18.9641 41.0774C17.2877 41.0774 15.6621 41.0774 14.0111 41.0774ZM48.4279 66.8824C45.2275 66.8824 42.0271 66.8824 38.8267 66.8824C37.1504 66.8824 35.474 66.8316 33.7976 66.9078C31.6386 66.984 30.2416 69.1682 31.1052 71.0985C31.6894 72.4193 32.807 73.0034 34.2294 73.0034C43.7035 73.0034 53.1776 73.0034 62.6264 73.0034C62.982 73.0034 63.3122 72.978 63.6678 72.9018C65.2426 72.5463 66.2331 71.0985 66.0045 69.4984C65.8013 67.9745 64.5314 66.9078 62.7534 66.9078C58.0036 66.8824 53.203 66.8824 48.4279 66.8824ZM10.125 27.2859C10.125 24.1873 10.0742 21.0887 10.1504 17.99C10.1758 16.8471 9.82017 16.0597 9.00737 15.2724C8.16918 14.4596 7.22939 14.6882 6.34039 14.8152C5.6546 14.8914 4.56241 16.5169 4.56241 17.1773C4.56241 23.9079 4.56241 30.6639 4.56241 37.3946C4.56241 37.674 4.56241 38.0295 4.71481 38.2073C5.5022 39.0963 6.21339 40.036 7.68658 39.8074C8.75338 39.6551 10.0996 38.4359 10.0996 37.3692C10.125 33.9912 10.125 30.6385 10.125 27.2859ZM86.934 27.3113C86.934 30.41 86.9848 33.5086 86.9086 36.6072C86.8832 37.6486 87.1118 38.4105 87.9246 39.0709C88.585 39.6043 90.2106 40.1376 90.7694 39.6551C91.5314 38.9947 92.5219 38.4867 92.4965 37.1406C92.4457 30.7147 92.4457 24.2889 92.4965 17.863C92.4965 16.7709 92.1409 16.0597 91.4298 15.3232C90.5916 14.4342 89.6264 14.6628 88.712 14.7898C87.9754 14.8914 86.934 16.5169 86.934 17.2281C86.934 20.6061 86.934 23.9587 86.934 27.3113ZM18.9387 21.6728C18.9387 15.6788 18.9387 9.78628 18.9387 3.9192C17.2369 3.9192 15.6113 3.9192 13.9857 3.9192C13.9857 9.88788 13.9857 15.755 13.9857 21.6728C15.6621 21.6728 17.2623 21.6728 18.9387 21.6728ZM78.1202 3.8684C78.1202 9.83708 78.1202 15.755 78.1202 21.622C79.822 21.622 81.4476 21.622 83.0732 21.622C83.0732 15.6534 83.0732 9.78628 83.0732 3.8684C81.4222 3.8684 79.822 3.8684 78.1202 3.8684ZM23.5869 93.5255C23.5869 92.5858 23.6377 91.7222 23.5869 90.8841C23.5107 89.6395 22.6217 88.6744 21.4279 88.649C18.1005 88.5982 14.7731 88.5982 11.4712 88.649C10.4044 88.649 9.48997 89.4617 9.36297 90.5031C9.26137 91.4936 9.33757 92.5096 9.33757 93.5509C14.0873 93.5255 18.7863 93.5255 23.5869 93.5255ZM55.616 93.5509C55.616 92.8398 55.616 92.2048 55.616 91.5952C55.616 91.2904 55.616 90.9603 55.5906 90.6555C55.4382 89.5379 54.5746 88.6744 53.4062 88.649C50.1043 88.5982 46.8277 88.6236 43.5257 88.649C42.4589 88.649 41.5191 89.4363 41.3921 90.4523C41.2651 91.4682 41.3667 92.5096 41.3667 93.5509C46.1165 93.5509 50.7901 93.5509 55.616 93.5509ZM87.7722 93.5255C87.7722 92.5604 87.823 91.6714 87.7468 90.7825C87.6452 89.5125 86.7562 88.649 85.537 88.6236C82.2858 88.5982 79.0092 88.5982 75.7581 88.6236C74.5643 88.6236 73.6245 89.4871 73.4975 90.6555C73.3959 91.5952 73.4721 92.535 73.4721 93.5255C78.2726 93.5255 82.9716 93.5255 87.7722 93.5255ZM50.9425 84.7884C50.9425 82.0962 50.9425 79.5055 50.9425 76.8894C49.2661 76.8894 47.6405 76.8894 46.0149 76.8894C46.0149 79.5563 46.0149 82.1723 46.0149 84.7884C47.6659 84.7884 49.2407 84.7884 50.9425 84.7884ZM13.9857 32.8228C13.9857 34.2706 13.9857 35.6675 13.9857 37.1152C15.6875 37.1152 17.3131 37.1152 18.9641 37.1152C18.9641 35.6421 18.9641 34.2706 18.9641 32.8228C17.2877 32.8228 15.6621 32.8228 13.9857 32.8228ZM83.0732 37.1406C83.0732 35.6675 83.0732 34.2705 83.0732 32.8482C81.3968 32.8482 79.7712 32.8482 78.1202 32.8482C78.1202 34.3213 78.1202 35.6929 78.1202 37.1406C79.7712 37.1406 81.4222 37.1406 83.0732 37.1406Z" fill="white"/>
</svg>
