<svg width="262" height="219" viewBox="0 0 262 219" fill="none" xmlns="http://www.w3.org/2000/svg">
<path d="M197.455 113.316C195.329 115.48 193.265 117.704 191.078 119.806C190.646 120.207 189.814 120.393 189.168 120.393C185.717 120.455 182.235 120.424 178.785 120.424C177.799 120.424 177.029 120.084 176.32 119.373C174.78 117.766 173.208 116.19 171.576 114.645C170.744 113.873 170.436 112.976 170.466 111.864C170.497 109.268 170.466 106.703 170.466 104.108C170.466 103.737 170.466 103.366 170.466 102.872C168.495 103.088 166.646 103.304 164.705 103.551C164.767 107.723 163.658 111.493 161.593 114.954C160.577 116.654 159.406 118.292 158.143 119.868C156.818 121.505 156.202 123.267 156.233 125.399C156.294 136.122 156.263 146.845 156.263 157.537C156.263 158.062 156.263 158.618 156.171 159.144C155.955 160.194 154.969 160.936 153.891 160.905C152.874 160.874 151.95 160.132 151.765 159.113C151.673 158.649 151.673 158.186 151.673 157.722C151.673 146.814 151.704 135.905 151.642 124.997C151.642 122.062 152.474 119.497 154.353 117.241C156.726 114.398 158.821 111.339 159.652 107.63C159.93 106.425 160.084 105.189 160.084 103.984C160.115 96.5677 160.115 89.1822 160.084 81.7658C160.084 81.0242 159.868 80.2207 159.468 79.6027C158.913 78.7374 157.958 78.4284 156.91 78.7065C155.863 78.9847 155.216 79.7572 155.031 80.8079C154.969 81.1169 155 81.4259 154.908 81.7349C154.631 82.8165 153.583 83.5581 152.505 83.4654C151.396 83.3727 150.502 82.5074 150.41 81.3641C150.348 80.5297 150.41 79.6645 150.379 78.8301C150.348 77.2542 149.393 76.1417 148.037 76.0181C146.559 75.8945 145.511 76.8524 145.295 78.4902C145.08 80.0353 144.125 80.9006 142.8 80.8079C141.506 80.7151 140.705 79.7572 140.674 78.243C140.674 77.7795 140.705 77.316 140.674 76.8524C140.582 75.4001 139.565 74.3185 138.209 74.2567C136.915 74.1949 135.806 75.2456 135.591 76.667C135.344 78.243 134.636 79.0156 133.403 79.0774C132.109 79.1701 131.092 78.3048 130.969 77.0069C130.938 76.6361 130.969 76.2344 130.938 75.8636C130.815 74.4112 129.737 73.3297 128.443 73.2988C127.18 73.2988 125.917 74.5348 125.855 75.9254C125.793 77.8413 125.824 79.7881 125.824 81.704C125.824 86.432 125.824 91.1908 125.824 95.9188C125.824 101.388 122.651 104.417 117.228 104.2C117.074 104.2 116.951 104.231 116.458 104.262C117.074 105.684 117.506 107.043 118.245 108.218C120.309 111.431 122.497 114.522 124.653 117.674C126.933 120.98 127.18 124.626 126.779 128.52C125.855 137.451 125.085 146.381 124.253 155.343C124.16 156.486 124.068 157.66 123.914 158.804C123.698 160.163 122.651 160.998 121.449 160.874C120.155 160.75 119.262 159.731 119.385 158.278C119.786 153.396 120.248 148.544 120.71 143.662C121.264 137.605 121.881 131.548 122.374 125.492C122.528 123.607 121.881 121.845 120.802 120.269C118.646 117.117 116.489 113.965 114.363 110.844C112.884 108.681 112.145 106.302 111.991 103.613C110.112 103.366 108.263 103.119 106.26 102.872C106.26 105.004 106.291 107.043 106.26 109.083C106.199 114.491 106.907 112.915 103.118 116.654C98.4349 121.289 100.684 120.331 94.0908 120.424C91.9342 120.455 89.7776 120.424 87.6209 120.424C86.6351 120.424 85.8648 120.115 85.1562 119.404C83.5542 117.735 81.8289 116.19 80.2884 114.46C79.7647 113.873 79.3333 112.915 79.3333 112.111C79.2717 100.06 79.2717 87.977 79.3333 75.9254C79.3333 75.091 79.7647 74.1331 80.3192 73.4842C81.8597 71.7537 83.4925 70.1159 85.2178 68.6017C85.8032 68.0764 86.7583 67.6746 87.5593 67.6437C91.0099 67.551 94.4914 67.551 97.942 67.6437C98.743 67.6746 99.6981 68.0455 100.283 68.6017C102.04 70.1777 103.703 71.8464 105.244 73.5769C105.767 74.164 106.168 75.1219 106.199 75.9254C106.322 78.5829 106.23 81.2405 106.23 83.898C106.23 84.2688 106.23 84.6397 106.23 85.165C108.201 84.9178 110.05 84.7015 111.991 84.4851C111.991 83.7744 111.991 83.1873 111.991 82.5692C112.083 78.1503 115.442 74.7511 119.847 74.7202C120.802 74.7202 121.295 74.5039 121.665 73.5151C123.144 69.4051 128.782 66.4695 133.711 71.1047C137.408 68.7871 140.797 69.3124 143.786 72.4644C148.161 70.2704 151.735 71.6919 153.984 74.9056C155.586 74.1949 157.219 73.7932 158.975 74.2258C162.21 74.9983 164.52 77.7486 164.613 81.1169C164.644 82.2293 164.613 83.3418 164.613 84.4233C164.859 84.5161 165.013 84.5778 165.167 84.6088C166.831 84.7942 168.525 84.9796 170.405 85.1959C170.405 84.7633 170.405 84.3615 170.405 83.9598C170.405 81.3332 170.436 78.7065 170.405 76.1108C170.405 75.091 170.713 74.2567 171.452 73.546C173.085 71.97 174.626 70.2704 176.32 68.7562C176.936 68.2 177.922 67.7674 178.754 67.7365C182.205 67.6128 185.686 67.6438 189.137 67.7056C189.784 67.7056 190.616 67.891 191.047 68.2927C193.234 70.394 195.299 72.6189 197.394 74.782C197.394 77.934 197.394 81.1169 197.394 84.2688C196.469 85.6903 195.545 86.1847 194.405 85.8139C193.265 85.4431 192.772 84.5779 192.772 82.8474C192.772 81.1787 192.711 79.5409 192.803 77.8722C192.865 76.8524 192.402 76.2344 191.817 75.4619C189.845 72.8043 187.319 71.8155 184.053 72.279C182.482 72.4953 180.664 71.9391 179.278 72.4953C177.891 73.0824 176.936 74.6584 175.766 75.74C175.211 76.2653 175.026 76.8215 175.026 77.5632C175.057 88.4715 175.057 99.3797 175.026 110.257C175.026 111.246 175.396 111.895 175.981 112.698C177.984 115.294 180.449 116.407 183.714 115.912C185.286 115.665 187.103 116.283 188.49 115.696C189.907 115.109 190.954 113.564 192.064 112.358C192.433 111.957 192.711 111.308 192.741 110.782C192.803 108.558 192.741 106.302 192.772 104.077C192.803 102.532 194.035 101.327 195.36 101.728C196.13 101.945 196.716 102.717 197.363 103.242C197.455 106.518 197.455 109.917 197.455 113.316ZM101.731 94.0029C101.731 88.5642 101.701 83.1255 101.762 77.7177C101.762 76.7288 101.362 76.1417 100.807 75.4001C98.8046 72.7116 96.2475 72.1245 92.9817 72.0627C89.5003 72.0009 86.8199 72.7425 84.7557 75.5855C84.2936 76.2035 83.9855 76.7288 83.9855 77.5014C84.0163 88.4097 84.0163 99.287 83.9855 110.195C83.9855 111.215 84.386 111.833 84.9714 112.606C86.9431 115.263 89.4695 116.252 92.7353 115.789C94.3065 115.572 96.1242 116.159 97.5106 115.572C98.9279 114.954 99.9754 113.409 101.084 112.204C101.454 111.802 101.731 111.153 101.731 110.628C101.762 105.097 101.731 99.5343 101.731 94.0029ZM106.353 89.7693C106.353 92.4578 106.322 94.9608 106.384 97.4638C106.384 97.742 106.784 98.2055 107.061 98.2364C110.697 98.7308 114.363 99.2252 117.999 99.627C119.94 99.8433 121.203 98.669 121.264 96.6295C121.326 94.4664 121.264 92.3342 121.264 90.171C121.264 89.6148 121.264 89.0277 121.264 88.3479C116.212 88.8423 111.344 89.2749 106.353 89.7693ZM164.828 89.1204C164.828 92.4269 164.828 95.5788 164.828 98.8235C166.769 98.6072 168.618 98.36 170.405 98.1437C170.405 95.2698 170.405 92.5196 170.405 89.7384C168.525 89.553 166.739 89.3367 164.828 89.1204ZM121.203 79.3555C117.937 78.9847 116.273 80.7769 116.859 84.0525C118.276 83.9598 119.724 83.8362 121.203 83.7126C121.203 82.2293 121.203 80.8387 121.203 79.3555Z" fill="white"/>
<path d="M197.455 94.5598C197.362 94.7143 197.239 94.8688 197.147 95.0233C196.561 95.9813 195.668 96.3521 194.589 96.1049C193.604 95.8886 192.833 94.9306 192.864 93.9109C192.895 92.8293 193.388 92.0877 194.435 91.7169C195.514 91.346 196.376 91.7169 197.054 92.613C197.177 92.7984 197.331 92.9838 197.455 93.1383C197.455 93.6328 197.455 94.0963 197.455 94.5598Z" fill="white"/>
</svg>
