<svg width="114" height="114" viewBox="0 0 114 114" fill="none" xmlns="http://www.w3.org/2000/svg">
<path d="M26.2773 8.80619C26.2773 7.63769 26.2488 6.46919 26.2773 5.30069C26.3058 3.93269 27.1893 2.99219 28.4148 2.99219C29.6403 2.99219 30.5238 3.93269 30.5523 5.30069C30.5808 7.63769 30.5808 9.97469 30.5523 12.3117C30.5523 13.6797 29.6688 14.5917 28.4433 14.5917C27.1893 14.5917 26.3343 13.6797 26.3058 12.3117C26.2488 11.1432 26.2773 9.97469 26.2773 8.80619Z" fill="white"/>
<path d="M111.72 79.2308C111.72 79.2023 111.691 79.2023 111.691 79.1738C111.72 79.2023 111.748 79.2308 111.777 79.2878C111.748 79.2593 111.72 79.2308 111.72 79.2308Z" fill="white"/>
<path d="M8.32181 31.0073C7.15331 31.0073 5.98481 31.0358 4.81631 31.0073C3.44831 30.9788 2.50781 30.0953 2.50781 28.8698C2.50781 27.6443 3.44831 26.7608 4.81631 26.7323C7.15331 26.7038 9.49031 26.7038 11.8273 26.7323C13.1953 26.7323 14.1073 27.6158 14.1073 28.8413C14.1073 30.0953 13.1953 30.9503 11.8273 30.9788C10.6588 31.0358 9.49031 31.0073 8.32181 31.0073Z" fill="white"/>
<path d="M92.5395 81.482C92.5395 82.6505 91.6275 83.591 90.4875 83.6195C89.319 83.648 88.293 82.622 88.293 81.4535C88.3215 80.3135 89.262 79.373 90.4305 79.373C91.599 79.4015 92.5395 80.285 92.5395 81.482Z" fill="white"/>
<path d="M16.8724 19.8367L5.3299 9.23469C4.4749 8.43669 4.4179 7.09719 5.2159 6.21369C6.0139 5.35869 7.3534 5.30169 8.2369 6.09969L19.7794 16.7017C20.6344 17.4997 20.6914 18.8392 19.8934 19.7227C19.0954 20.5777 17.7274 20.6347 16.8724 19.8367Z" fill="white"/>
<path d="M105.992 26.8467C107.16 26.8467 108.329 26.8182 109.497 26.8467C110.865 26.8752 111.806 27.7587 111.806 28.9842C111.806 30.2097 110.865 31.0932 109.497 31.1217C107.16 31.1502 104.823 31.1502 102.486 31.1217C101.118 31.1217 100.206 30.2382 100.206 29.0127C100.206 27.7587 101.118 26.9037 102.486 26.8752C103.655 26.8182 104.823 26.8467 105.992 26.8467Z" fill="white"/>
<path d="M83.79 8.89213C83.79 7.72363 83.7615 6.55512 83.79 5.38662C83.8185 4.01862 84.702 3.07812 85.9275 3.07812C87.153 3.07812 88.0365 4.01862 88.065 5.38662C88.0935 7.72362 88.0935 10.0606 88.065 12.3976C88.065 13.7656 87.1815 14.6776 85.956 14.6776C84.702 14.6776 83.847 13.7656 83.8185 12.3976C83.79 11.2291 83.79 10.0606 83.79 8.89213Z" fill="white"/>
<path d="M94.962 17.4417L105.564 5.89924C106.362 5.04424 107.701 4.98724 108.585 5.78524C109.44 6.58324 109.497 7.92274 108.699 8.80624L98.097 20.3487C97.299 21.2037 95.9595 21.2607 95.076 20.4627C94.221 19.6647 94.164 18.2967 94.962 17.4417Z" fill="white"/>
<path d="M111.777 79.2871C111.749 79.2871 111.749 79.2871 111.777 79.2871C111.749 79.2586 111.72 79.2016 111.692 79.1731C111.635 79.1161 111.606 79.0876 111.578 79.0306C111.549 79.0021 111.521 78.9736 111.492 78.9451C111.15 78.5461 110.78 78.2326 110.381 77.8051C105.593 72.9886 100.776 68.2006 95.9884 63.3841C95.6464 63.0421 95.3329 62.5006 95.3044 62.0446C95.1334 58.8811 94.4779 55.8601 93.1099 52.9816C92.7964 52.3261 92.9389 51.9841 93.4234 51.5281C94.5919 50.4166 95.7319 49.3051 96.8149 48.1081C100.491 44.0326 98.4679 37.5916 93.1669 36.2806C92.6254 36.1381 92.0554 36.0811 91.5139 35.9956C90.8014 31.4356 88.9204 29.5546 84.2749 28.7281C83.7904 24.3961 81.3679 21.9736 77.0074 21.4891C76.7224 18.2116 75.2119 15.8461 72.0769 14.7631C68.8849 13.6516 66.2344 14.6776 63.9829 17.0431C62.2729 18.8101 60.5059 20.5201 58.7959 22.2586C58.2544 22.8001 57.7414 23.3986 57.0859 24.1111C55.5184 22.4581 54.1789 20.9476 52.6969 19.5796C50.5594 17.5846 47.9944 17.1286 45.2584 18.1546C42.5794 19.1521 41.0119 21.1756 40.6414 24.0256C40.5559 24.6811 40.3279 24.9091 39.6724 24.9661C36.5944 25.3366 34.2004 27.5026 33.5164 30.4951C33.4024 31.0081 33.3454 31.5211 33.2599 32.0056C27.8164 32.3761 24.5389 37.5346 26.8759 42.8356C26.5054 43.0351 26.1064 43.2061 25.7359 43.4056C21.5749 45.6856 20.7199 51.2146 23.9689 54.7201C24.9664 55.8031 26.0209 56.8291 27.1039 57.9121C23.5699 61.4176 20.1499 64.8376 16.7299 68.2576C12.3409 72.6466 7.92336 77.0641 3.53437 81.4531C3.22087 81.7666 2.90737 82.1086 2.70787 82.4506C2.70787 82.4506 2.70787 82.4791 2.67937 82.4791C2.08087 83.3911 2.16637 84.4456 2.90737 85.1866C3.76237 86.0416 5.04487 86.0131 6.04237 85.0726C6.89737 84.2746 7.69536 83.4196 8.52186 82.5931C9.34837 81.7666 10.2034 80.9686 11.0014 80.1136C11.1439 79.9711 11.2864 79.8001 11.3719 79.6576C12.8539 78.2041 14.3074 76.7221 15.7609 75.2686C17.9554 73.0741 20.1214 70.8796 22.2304 68.7991C27.3319 73.9006 32.3479 78.9166 37.6204 84.1891C37.3639 84.3601 36.9649 84.5596 36.6514 84.8446C29.0419 92.4256 21.4609 100.035 13.8799 107.616C13.5664 107.93 13.2529 108.215 13.0249 108.557C12.4264 109.355 12.5119 110.495 13.1674 111.207C13.8514 111.948 15.0199 112.119 15.8749 111.549C16.2454 111.293 16.5874 110.951 16.9009 110.637C27.5599 100.092 38.1334 89.4901 48.7354 78.9166C49.3054 78.3466 49.9609 77.8336 50.5879 77.3206C51.0439 76.9216 51.4714 76.9501 52.0129 77.3206C53.4379 78.3181 54.9199 79.2586 56.3734 80.1991C59.6224 82.3081 63.1564 83.2771 67.0039 82.8781C67.8304 82.7926 68.3719 83.0206 68.9419 83.6191C78.0049 92.7106 87.0964 101.774 96.1594 110.865C96.4729 111.179 96.8149 111.521 97.1854 111.777C98.0119 112.319 99.0379 112.176 99.7219 111.492C100.463 110.78 100.634 109.725 100.064 108.87C99.8074 108.5 99.4654 108.158 99.1519 107.844C94.1074 102.8 89.0629 97.7266 83.9899 92.6821C83.7049 92.4256 83.3059 92.2831 82.7644 91.9696C83.7619 91.0576 84.4459 90.5446 85.0159 89.9176C85.9564 88.9201 85.9849 87.6376 85.1299 86.7826C84.2464 85.9276 82.9924 85.9561 81.9949 86.9251C81.3964 87.5236 80.8264 88.1506 80.3419 88.6351C78.6889 86.9821 77.1499 85.4431 75.8389 84.1036C81.5674 78.3751 87.3814 72.5611 93.0529 66.8611C94.4494 68.2861 95.9884 69.7966 97.5844 71.4211C97.0714 71.9056 96.4444 72.4471 95.8744 73.0171C94.8484 74.0716 94.7914 75.3256 95.7319 76.2091C96.6439 77.0926 97.8409 77.0641 98.8669 76.0381C99.4654 75.4396 99.9784 74.7556 100.605 74.0431C101.517 74.9551 102.401 75.8671 103.284 76.7221C103.341 76.8076 103.427 76.8931 103.512 76.9786C105.165 78.6601 106.79 80.3131 108.471 81.9376C109.44 82.8781 110.751 82.9351 111.606 82.0516C112.347 81.3106 112.404 80.2276 111.777 79.2871ZM45.1159 23.7406C45.6004 22.6006 46.5409 22.0306 47.9089 21.7741C48.5929 22.1446 49.4194 22.4011 49.9609 22.9426C52.5259 25.3936 55.0339 27.9301 57.5134 30.4666C58.7674 31.7491 58.7674 33.6016 57.5704 34.7701C56.4019 35.9101 54.6064 35.9386 53.3524 34.7131C50.7874 32.2051 48.2509 29.6401 45.7429 27.1036C44.8024 26.1061 44.6029 24.9661 45.1159 23.7406ZM38.4469 30.0961C39.5299 28.9846 41.3254 28.8136 42.4939 29.9251C45.2014 32.5471 47.8519 35.1976 50.4739 37.9051C50.9299 38.3896 51.1009 39.1306 51.2434 39.4441C51.1864 41.0116 50.6734 41.9521 49.5904 42.4936C48.4789 43.0351 47.3104 43.0066 46.3984 42.1231C43.6624 39.4726 40.9834 36.7936 38.3329 34.0576C37.2784 32.9746 37.3924 31.2076 38.4469 30.0961ZM31.2364 37.3351C32.4334 36.1381 34.2289 36.1096 35.5114 37.3921C38.0479 39.8716 40.5559 42.4081 43.0639 44.9161C44.0329 45.8851 44.2894 47.0821 43.7194 48.3361C43.2064 49.4761 42.2659 50.0461 40.5559 50.0461C40.2139 49.8466 39.3874 49.5901 38.8459 49.0486C36.3094 46.5976 33.8299 44.1181 31.3789 41.6101C30.0964 40.3276 30.0679 38.5036 31.2364 37.3351ZM27.1324 47.7376C28.3579 46.4836 30.1534 46.4836 31.4929 47.7946C33.0034 49.2481 34.4854 50.7301 35.9104 52.2406C36.8224 53.2096 37.0504 54.3496 36.4804 55.5751C35.9389 56.7151 35.0269 57.2566 33.3169 57.2851C32.9464 57.0856 32.1769 56.8291 31.6069 56.2876C30.1249 54.9196 28.6999 53.4661 27.3034 52.0126C26.0209 50.7301 25.9924 48.9346 27.1324 47.7376ZM40.6414 80.5981C35.7394 75.6961 30.7234 70.6516 25.7644 65.7211C27.1894 64.2961 28.7284 62.7571 30.2104 61.2751C35.1409 66.2056 40.1569 71.2216 45.0874 76.1806C43.6909 77.5486 42.1519 79.0876 40.6414 80.5981ZM55.6609 71.7631C53.2384 71.8201 50.9299 72.1621 48.9349 73.3306C44.8024 69.1981 40.7269 65.1226 36.6229 61.0186C39.3304 59.7931 40.8409 57.5131 41.0689 54.3496C42.8074 54.2356 44.3464 53.7511 45.6289 52.6396C47.0254 51.4426 47.9374 49.9321 48.1369 48.0796C48.2224 47.3671 48.3934 47.0536 49.1914 46.9681C52.3834 46.6546 54.9769 44.0326 55.3759 40.8406C55.4614 40.2136 55.5184 39.8146 56.3164 39.7291C59.2234 39.3871 61.2469 37.7911 62.2444 35.0551C63.2419 32.3191 62.7004 29.8111 60.7624 27.6166C60.5914 27.4171 60.4204 27.2461 60.2779 27.0466C60.2494 27.0181 60.2494 26.9896 60.2209 26.7616C61.2184 25.7926 62.2729 24.7666 63.3274 23.7121C64.7239 22.3441 66.0919 20.9191 67.4884 19.5796C68.8279 18.2971 70.5664 18.2401 71.7634 19.4371C73.0174 20.6341 72.9889 22.4296 71.6779 23.7976C70.2244 25.3651 68.6854 26.7901 67.2604 28.3291C65.9779 29.6686 66.4909 31.7206 68.2009 31.9486C68.8849 32.0341 69.8254 31.6636 70.3669 31.1791C71.9344 29.7826 73.3309 28.2151 74.8699 26.7616C76.6369 25.0801 79.3729 25.9066 79.8859 28.2436C80.1424 29.4406 79.6864 30.3811 78.8314 31.2076C76.7224 33.3166 74.6134 35.4256 72.5044 37.5346C72.2764 37.7626 72.0484 37.9906 71.8489 38.2186C71.1079 39.1306 71.1649 40.3561 71.9629 41.1256C72.7324 41.8951 74.0149 41.9521 74.8699 41.1826C75.7819 40.3561 76.6369 39.4441 77.5204 38.5606C79.0024 37.0786 80.4844 35.5681 81.9664 34.1146C83.3344 32.8036 85.1299 32.7751 86.3269 34.0006C87.5524 35.2546 87.4954 36.9931 86.1274 38.3611C83.8474 40.6696 81.5674 42.9496 79.2874 45.2296C78.5179 45.9991 78.3184 46.8826 78.8314 47.8516C79.2589 48.7066 80.2564 49.1911 81.1684 48.8776C81.6814 48.7066 82.1659 48.3361 82.5649 47.9656C84.7879 45.7711 87.0109 43.5481 89.2054 41.3536C90.0889 40.4701 91.1149 40.1281 92.3119 40.4986C93.4234 40.8406 94.1074 41.6101 94.3639 42.7501C94.5919 43.7761 94.3069 44.6881 93.5944 45.4006C87.1249 51.8416 80.7694 58.4536 74.1004 64.6666C68.9704 69.3976 62.6434 71.5921 55.6609 71.7631ZM90.6304 62.7856C84.6169 68.8276 78.5749 74.8411 72.5329 80.8546C72.5044 80.8831 72.4759 80.8831 72.1909 80.9686C71.7064 80.4556 71.1934 79.9141 70.7089 79.3441C69.9109 78.4036 68.9704 78.1756 67.7449 78.4321C64.3819 79.1446 60.6199 78.2041 57.9124 75.9811C59.1664 75.7531 60.3349 75.5821 61.4749 75.3541C67.8304 74.1001 73.4164 71.2501 78.0904 66.7756C81.6529 63.3556 85.1014 59.8216 88.6069 56.3161C88.8919 56.0311 89.1484 55.8031 89.5189 55.4326C90.4594 57.5986 90.8869 59.7646 90.9724 62.0161C91.0009 62.3011 90.8299 62.6146 90.6304 62.7856Z" fill="white"/>
</svg>
