<svg width="111" height="111" viewBox="0 0 111 111" fill="none" xmlns="http://www.w3.org/2000/svg">
<path d="M108.78 81.3632C108.391 82.39 108.058 83.4722 107.559 84.4157C106.754 85.9142 105.45 86.9687 103.896 87.6347C102.148 88.3839 100.399 89.1332 98.6233 89.827C97.319 90.3542 96.1535 89.9102 95.6818 88.7724C95.21 87.6069 95.7373 86.5524 97.097 85.9697C98.7898 85.2482 100.483 84.5822 102.175 83.8607C104.284 82.9172 105.172 80.725 104.312 78.6992C103.48 76.7012 101.232 75.7299 99.1228 76.5902C90.9366 79.9757 82.7781 83.3889 74.6196 86.8022C74.5363 86.8299 74.453 86.9132 74.3143 87.0242C75.674 90.1322 75.3688 93.0737 73.0656 95.932C73.5373 95.7655 73.787 95.6822 74.0646 95.5712C75.8128 94.8497 77.5611 94.1005 79.3371 93.4067C80.6691 92.8795 81.8068 93.2957 82.2785 94.489C82.7225 95.599 82.2231 96.6812 80.9466 97.2362C75.3133 99.5949 69.6801 101.981 63.9913 104.285C61.0776 105.45 58.1638 106.671 55.1391 107.531C50.0053 109.002 44.7606 108.808 39.4881 107.92C33.0501 106.838 26.5843 105.894 20.1186 104.895C19.6468 104.812 19.1751 104.784 18.7033 104.784C14.1523 104.784 9.60131 104.784 5.05031 104.784C3.13556 104.784 2.41406 104.063 2.41406 102.148C2.41406 92.5187 2.41406 82.8895 2.41406 73.288C2.41406 71.401 3.16331 70.6795 5.07806 70.6795C8.82431 70.6795 12.5706 70.6517 16.2891 70.6795C18.0373 70.7072 19.7023 70.4852 21.3951 70.0135C23.4208 69.4585 25.5298 69.2087 27.5833 68.7647C27.9996 68.6814 28.4991 68.4594 28.7766 68.1264C33.1888 62.9095 38.7388 60.6617 45.5376 61.411C45.8706 61.4387 46.3146 61.3554 46.5643 61.1612C49.1451 58.9134 52.1143 57.5815 55.5276 57.082C55.5553 56.8045 55.5831 56.5825 55.5831 56.3327C55.5831 51.1435 55.6663 45.9542 55.5553 40.7649C55.4721 35.215 53.0578 30.8582 48.4791 27.7225C47.8686 27.3062 47.3136 27.1952 46.5643 27.3895C43.5951 28.1665 40.6258 29.1377 37.6011 29.5262C28.3048 30.7472 19.7023 24.9197 17.1493 15.9287C16.4001 13.2925 15.7341 10.6562 15.0403 8.01995C14.5963 6.3827 15.1513 5.4392 16.8163 5.02295C19.5081 4.3292 22.2276 3.63545 24.9193 2.9417C26.5288 2.41445 28.1661 2.2202 29.8311 2.2202H30.2751C30.8578 2.24795 31.3296 2.30345 31.8568 2.41445C39.7933 3.7742 45.0381 8.2697 47.5078 15.9287C48.2016 18.0655 48.7288 20.2577 49.2838 22.4222C49.4503 23.116 49.8111 23.5322 50.3661 23.9485C51.8646 25.114 53.3908 26.2795 54.6951 27.6392C55.8328 28.8325 56.7208 30.3032 57.7198 31.6907C57.7753 31.6075 57.8863 31.4965 57.9418 31.3855C59.6901 28.1942 62.1043 25.6412 65.2123 23.7265C65.5453 23.5322 65.8228 23.0605 65.9338 22.672C66.5443 20.5907 67.0438 18.454 67.6543 16.3727C69.3193 10.4065 73.0101 6.13295 78.6988 3.7187C80.3916 2.9972 82.1953 2.46995 84.0268 2.19245C85.331 1.9982 86.4966 2.08145 87.8008 2.24795C91.4361 2.69195 95.0435 3.9962 98.5955 4.91195C100.094 5.30045 100.677 6.29945 100.261 7.79795C99.5668 10.462 98.8731 13.1537 98.1238 15.8177C95.5431 24.8087 86.9683 30.6085 77.6721 29.3875C74.6473 28.999 71.6781 28.0277 68.7088 27.2507C67.9873 27.0565 67.4601 27.1397 66.8773 27.556C62.2986 30.6917 59.8288 35.0207 59.7456 40.543C59.6623 45.7322 59.7178 50.9214 59.7178 56.1107C59.7178 56.3882 59.7456 56.638 59.7733 56.9432C64.0468 57.6092 67.5988 59.4962 70.3738 62.7707C70.8456 63.3257 71.2341 63.4367 71.9556 63.2702C80.3916 61.0502 89.1605 65.7954 91.9355 74.0649C92.0188 74.3425 92.1575 74.6199 92.2685 74.9252C94.1001 74.1482 95.8483 73.3989 97.6243 72.7052C102.342 70.8737 107.337 73.4545 108.586 78.3662C108.641 78.5882 108.724 78.8102 108.808 79.06C108.78 79.837 108.78 80.614 108.78 81.3632ZM6.57656 100.594C8.60231 100.594 10.4893 100.594 12.4041 100.594C15.0403 100.622 17.7043 100.4 20.2851 100.76C26.7508 101.593 33.2166 102.62 39.6546 103.73C44.7051 104.59 49.7278 104.895 54.6673 103.341C58.0251 102.287 61.2441 100.844 64.5186 99.5395C65.2956 99.2342 66.0726 98.8735 67.0716 98.4849C66.1558 98.2629 65.4343 98.1242 64.7683 97.9022C58.5523 95.9042 52.3363 93.8507 46.1203 91.9082C44.9548 91.5475 43.7061 91.4365 42.4851 91.3255C41.5693 91.2422 40.6258 91.3532 39.6823 91.27C38.5723 91.159 37.8231 90.2987 37.7953 89.2442C37.7676 88.3007 38.4891 87.2462 39.4048 87.2462C41.6803 87.2462 44.0668 87.0242 46.1758 87.6347C52.7803 89.5217 59.2738 91.7972 65.8228 93.8784C66.4333 94.0727 67.1271 94.2114 67.7376 94.1837C69.3471 94.045 70.5681 92.8517 70.9011 91.3255C71.2341 89.7437 70.4848 88.2175 68.8753 87.3849C61.9656 83.7497 55.0836 80.0589 48.0906 76.5347C40.4871 72.7052 32.4118 71.7617 24.1701 73.732C20.6181 74.5645 17.1216 74.9252 13.5141 74.842C11.5438 74.7865 9.57356 74.842 7.60331 74.842C7.27031 74.842 6.93731 74.842 6.57656 74.842C6.57656 83.4445 6.57656 91.936 6.57656 100.594ZM88.2726 76.618C88.1893 76.2572 88.1616 76.0075 88.0783 75.7855C85.997 68.8202 78.3658 65.1295 71.5393 67.7657C69.8465 68.4317 69.1251 68.2097 68.1816 66.7944C63.6028 59.9124 54.5008 59.0245 48.6178 64.8797C47.8686 65.629 47.0638 65.8787 46.0093 65.6567C42.1243 64.852 38.5168 65.5457 35.2146 67.738C34.9093 67.9322 34.6596 68.1819 34.2156 68.5149C34.7151 68.5982 34.9371 68.6259 35.1591 68.6537C40.3206 69.0145 45.2601 70.3465 49.8666 72.7052C56.6376 76.174 63.3531 79.726 70.0963 83.278C70.7901 83.6387 71.3451 83.6665 72.0388 83.3612C73.9813 82.5287 75.9238 81.7517 77.8663 80.947C81.3073 79.504 84.7483 78.061 88.2726 76.618ZM95.8483 8.4917C93.6283 7.90895 91.5471 7.3262 89.438 6.79895C86.441 6.0497 83.4718 6.2717 80.5858 7.4372C74.786 9.7682 71.7891 14.5967 71.0398 20.3687C71.3728 20.2022 71.6781 20.0357 71.9833 19.8692C73.1488 19.2032 74.3143 18.4817 75.4798 17.8712C76.5343 17.3162 77.6998 17.6492 78.2548 18.6482C78.8098 19.6195 78.5323 20.785 77.5333 21.451C77.1726 21.7007 76.7563 21.9227 76.3678 22.1447C75.2856 22.783 74.1756 23.3935 72.9268 24.1427C74.1756 24.4757 75.1468 24.781 76.1458 25.0307C82.6948 26.6957 89.4658 23.8375 92.768 18.0377C94.433 15.0685 94.8215 11.7385 95.8483 8.4917ZM42.2631 24.0872C41.9578 23.893 41.7913 23.782 41.6248 23.671C40.3483 22.9217 39.0441 22.228 37.7676 21.4232C36.7131 20.785 36.4633 19.6195 37.0183 18.6205C37.5733 17.6492 38.7111 17.3162 39.8211 17.8435C40.3206 18.0932 40.7923 18.3707 41.2641 18.6482C42.2631 19.231 43.2343 19.786 44.4831 20.5075C44.0946 19.0367 43.8171 17.8712 43.4286 16.7057C41.7636 11.7662 38.4336 8.5472 33.4663 6.9377C28.5546 5.35595 24.1146 7.29845 19.4803 8.46395C20.0908 10.7117 20.6181 12.8762 21.2841 14.9852C22.7271 19.564 25.7518 22.6997 30.1918 24.4757C34.2156 26.113 38.1838 25.5025 42.2631 24.0872Z" fill="white"/>
<path d="M88.994 93.6564C87.8285 93.6564 86.9405 92.7962 86.9127 91.6584C86.885 90.4652 87.8285 89.5217 88.994 89.5494C90.104 89.5772 91.0475 90.4929 91.0197 91.6307C91.0197 92.7407 90.1317 93.6564 88.994 93.6564Z" fill="white"/>
</svg>
