<svg width="280" height="234" viewBox="0 0 280 234" fill="none" xmlns="http://www.w3.org/2000/svg">
<path d="M163.608 124.709C159.459 124.841 157.484 123.487 156.463 119.756C152.776 120.086 150.24 118.634 149.253 114.77C148.495 114.77 147.705 114.869 146.981 114.737C144.742 114.341 143.161 113.053 142.404 110.907C141.68 108.728 142.108 106.714 143.688 105.063C145.993 102.653 148.364 100.308 150.734 97.9971C151.261 97.4688 151.393 97.0396 151.195 96.2802C150.57 94.2331 151.063 92.318 152.545 90.7992C155.541 87.6954 158.603 84.6578 161.698 81.6201C163.937 79.4409 166.67 78.5494 169.732 79.0117C171.807 79.3418 173.453 78.7145 174.803 77.1957C174.935 77.0306 175.066 76.8985 175.231 76.7664C176.317 75.9079 176.713 75.1155 176.021 73.5967C175.066 71.5165 175.725 69.4694 177.272 67.7855C178.556 66.3987 179.906 65.078 181.289 63.7573C183.561 61.5781 186.952 61.512 189.191 63.7242C195.678 70.1628 202.131 76.6013 208.519 83.1389C210.692 85.3181 210.626 88.686 208.519 90.9642C207.202 92.384 205.852 93.7378 204.436 95.0585C202.559 96.8085 200.189 97.1387 197.818 95.983C197.258 95.6859 196.896 95.6528 196.435 96.1481C195.809 96.8745 195.085 97.4688 194.459 98.1622C193.472 99.2518 192.978 100.54 193.208 102.025C193.801 105.69 192.714 108.728 190.08 111.303C184.746 116.553 179.347 121.77 174.276 127.251C170.819 131.114 164.892 130.289 163.608 124.709ZM194.756 93.9359C189.224 88.3888 183.923 83.0399 178.491 77.6249C177.997 78.1862 177.371 78.8466 176.745 79.5069C174.77 81.5871 172.399 82.5116 169.535 82.0493C167.098 81.6531 165.024 82.4456 163.279 84.2285C160.579 87.0021 157.813 89.7096 155.113 92.4501C153.467 94.101 153.467 95.5538 155.146 97.2377C158.636 100.738 162.126 104.238 165.584 107.737C166.143 108.299 166.67 108.926 167.197 109.52C169.93 107.011 170.127 104.766 167.888 102.157C166.473 100.54 164.892 99.0867 163.411 97.5679C162.587 96.7424 162.456 95.7849 163.114 95.1906C163.904 94.4972 164.662 94.7283 165.419 95.3557C167.954 97.4358 170.753 97.4358 173.255 95.3887C174.046 94.7283 174.836 94.4312 175.626 95.2566C176.285 95.95 176.12 96.7424 175.198 97.6009C173.716 98.9547 171.938 99.615 170.259 99.8461C170.951 101.53 171.642 103.214 172.333 104.898C172.399 105.063 172.531 105.261 172.696 105.327C174.737 106.219 175.856 107.837 176.317 110.016C179.709 109.52 182.014 110.907 183.364 114.044C185.01 112.36 186.491 110.775 188.072 109.289C189.949 107.506 190.673 105.36 190.278 102.818C189.85 100.11 190.706 97.8651 192.583 95.983C193.34 95.1576 194.13 94.4972 194.756 93.9359ZM185.207 64.9789C184.45 65.4082 183.693 65.6723 183.133 66.1676C181.882 67.2902 180.729 68.5119 179.544 69.7335C178.227 71.1203 178.194 72.6391 179.511 73.9929C185.767 80.2994 192.023 86.5728 198.312 92.8463C199.629 94.134 201.143 94.134 202.46 92.8793C203.745 91.6576 204.996 90.4029 206.214 89.1152C207.399 87.8275 207.399 86.3087 206.148 85.021C199.859 78.6815 193.57 72.375 187.249 66.0685C186.755 65.6063 185.965 65.3751 185.207 64.9789ZM169.864 126.789C170.226 126.591 171.016 126.294 171.576 125.765C174.276 123.124 176.943 120.45 179.61 117.742C180.861 116.487 180.894 114.803 179.775 113.648C178.655 112.492 176.91 112.525 175.593 113.78C174.243 115.101 172.926 116.454 171.576 117.808C170.193 119.195 168.777 120.582 167.395 122.034C166.539 122.926 166.374 124.015 166.868 125.138C167.362 126.195 168.218 126.723 169.864 126.789ZM172.004 108.266C171.214 109.289 170.555 110.247 169.765 111.138C168.745 112.327 167.526 112.657 166.012 112.096C165.682 111.964 165.09 112.162 164.826 112.426C163.345 113.846 161.896 115.299 160.447 116.784C159.163 118.105 159.064 119.789 160.217 120.945C161.369 122.133 163.048 122.1 164.365 120.813C167.065 118.171 169.732 115.497 172.366 112.789C173.881 111.27 173.716 109.587 172.004 108.266ZM153.237 99.7801C150.767 102.223 148.199 104.7 145.729 107.275C144.676 108.398 144.84 110.016 145.894 111.072C146.948 112.096 148.561 112.261 149.681 111.171C152.216 108.662 154.652 106.054 157.023 103.61C155.838 102.422 154.521 101.101 153.237 99.7801ZM163.147 109.686C161.896 108.464 160.612 107.176 159.196 105.756C157.188 107.837 155.047 110.016 152.94 112.228C151.952 113.285 152.018 114.869 152.973 115.926C153.961 117.016 155.673 117.28 156.76 116.223C158.933 114.11 161.04 111.832 163.147 109.686Z" fill="white"/>
<path d="M141.284 122.762C145.301 124.346 146.355 125.832 146.19 129.993C149.845 130.95 151.524 133.327 151.096 137.224C151.359 137.29 151.557 137.356 151.787 137.422C156.265 138.808 157.582 143.893 154.29 147.228C149.878 151.719 145.4 156.143 140.955 160.6C139.802 161.756 138.617 162.912 137.465 164.1C135.16 166.445 132.361 167.402 129.167 166.94C127.093 166.643 125.447 167.237 124.097 168.756C124.031 168.855 123.932 168.954 123.834 169.02C122.681 169.945 122.088 170.77 122.879 172.454C123.834 174.435 123.109 176.515 121.595 178.133C120.31 179.52 118.961 180.874 117.578 182.161C115.24 184.374 111.849 184.374 109.577 182.128C103.156 175.756 96.7686 169.35 90.414 162.912C88.175 160.633 88.2079 157.233 90.414 154.888C91.6651 153.535 92.9822 152.247 94.3321 150.959C96.2418 149.143 98.6454 148.747 101.016 149.936C101.675 150.266 102.037 150.2 102.465 149.671C103.057 148.978 103.749 148.384 104.374 147.723C105.362 146.634 105.856 145.346 105.626 143.86C105.033 140.195 106.119 137.158 108.754 134.582C111.388 132.007 114.022 129.365 116.59 126.724C118.434 124.809 120.541 124.016 123.175 124.809C123.504 124.908 124.097 124.611 124.36 124.346C126.566 122.2 128.739 119.988 130.913 117.809C133.086 115.63 135.456 115.068 137.827 116.125C140.231 117.182 141.35 119.394 141.152 122.53C141.218 122.63 141.251 122.696 141.284 122.762ZM136.345 150.002C134.699 149.671 133.217 148.978 132.394 147.492C131.802 146.436 131.077 145.973 129.925 145.643C128.641 145.247 127.521 144.422 126.303 143.761C126.04 145.841 125.282 147.657 123.834 149.176C123.208 149.837 122.484 149.969 121.759 149.341C121.068 148.714 121.101 147.987 121.595 147.261C123.998 143.794 124.031 142.176 121.595 138.808C121.101 138.115 121.035 137.389 121.627 136.794C122.286 136.134 123.043 136.2 123.735 136.761C124.031 136.992 124.262 137.29 124.525 137.554C126.007 138.974 127.389 140.525 128.97 141.813C131.439 143.827 133.81 143.464 135.818 140.889C131.769 136.827 127.686 132.766 123.603 128.672C121.99 127.054 120.541 127.054 118.928 128.672C116.195 131.412 113.495 134.153 110.729 136.86C108.885 138.676 108.161 140.823 108.556 143.365C108.951 145.973 108.161 148.153 106.35 150.002C105.593 150.794 104.77 151.52 104.078 152.214C109.544 157.695 114.845 163.044 120.376 168.558C120.903 167.964 121.463 167.27 122.088 166.61C124.064 164.497 126.468 163.539 129.398 164.001C131.242 164.298 133.119 164.067 134.501 162.78C136.477 160.931 138.255 158.883 140.066 156.935C136.905 155.119 136.214 153.898 136.345 150.002ZM113.627 181.072C114.417 180.643 115.141 180.411 115.668 179.949C116.985 178.76 118.203 177.506 119.421 176.218C120.673 174.897 120.64 173.345 119.356 172.058C113.133 165.784 106.877 159.511 100.654 153.27C99.271 151.884 97.7235 151.884 96.3077 153.237C95.1223 154.393 93.9699 155.549 92.8175 156.737C91.4346 158.157 91.4346 159.676 92.8175 161.096C99.0405 167.369 105.296 173.643 111.552 179.85C112.079 180.378 112.902 180.643 113.627 181.072ZM142.206 154.459C142.897 154.03 143.721 153.7 144.313 153.138C146.947 150.596 149.516 147.987 152.084 145.379C153.467 143.992 153.565 142.308 152.38 141.12C151.195 139.931 149.516 140.03 148.133 141.384C146.651 142.87 145.169 144.355 143.688 145.841C142.469 147.063 141.218 148.285 140.033 149.539C139.177 150.431 139.045 151.52 139.539 152.643C139.967 153.667 140.856 154.195 142.206 154.459ZM134.732 145.643C135.95 147.261 137.662 147.525 139.045 146.205C141.91 143.431 144.708 140.591 147.474 137.752C148.594 136.596 148.495 134.945 147.408 133.856C146.355 132.799 144.675 132.733 143.523 133.79C141.877 135.342 140.296 136.959 138.749 138.577C138.551 138.808 138.453 139.337 138.551 139.601C139.177 141.153 138.749 142.44 137.531 143.464C136.642 144.256 135.654 144.95 134.732 145.643ZM130.155 130.851C130.353 130.653 130.55 130.521 130.715 130.323C132.921 128.111 135.127 125.898 137.3 123.653C138.65 122.266 138.683 120.549 137.465 119.394C136.279 118.271 134.666 118.337 133.316 119.691C131.143 121.837 129.003 123.983 126.863 126.162C126.632 126.427 126.402 126.691 126.204 126.922C127.554 128.21 128.838 129.497 130.155 130.851ZM136.246 137.025C137.037 136.167 137.761 135.375 138.485 134.615C139.802 133.261 141.185 131.974 142.469 130.587C143.556 129.431 143.523 127.879 142.535 126.79C141.58 125.733 139.901 125.403 138.881 126.361C136.576 128.507 134.436 130.785 132.263 132.964C133.612 134.318 134.864 135.573 136.246 137.025Z" fill="white"/>
<path d="M114.384 101.696C114.055 101.531 113.594 101.399 113.232 101.167C107.865 98.0638 102.531 94.9601 97.1641 91.8563C95.9788 91.163 95.6824 90.4366 96.1434 89.6111C96.6043 88.7526 97.4604 88.6206 98.5799 89.2809C103.98 92.3846 109.38 95.4883 114.746 98.6581C115.273 98.9883 115.701 99.7147 115.866 100.342C115.932 100.639 115.306 101.134 114.977 101.498C114.845 101.63 114.615 101.63 114.384 101.696Z" fill="white"/>
<path d="M115.24 70.7248C115.569 70.3286 115.833 69.6683 116.261 69.5362C116.755 69.4041 117.413 69.6022 117.907 69.8664C118.236 70.0315 118.368 70.5267 118.599 70.8569C121.595 76.0408 124.591 81.2576 127.554 86.4415C127.752 86.7717 128.081 87.1349 128.015 87.399C127.917 88.0264 127.752 88.8188 127.291 89.116C126.929 89.3471 126.139 89.0169 125.579 88.8188C125.348 88.7198 125.184 88.2905 125.052 88.0264C121.99 82.7104 118.961 77.4275 115.899 72.1116C115.668 71.7484 115.504 71.3192 115.24 70.7248Z" fill="white"/>
<path d="M202.921 155.251C202.954 156.638 202.098 157.364 201.11 157.1C200.748 157.001 200.451 156.803 200.122 156.638C194.821 153.567 189.553 150.529 184.252 147.459C183.89 147.26 183.429 147.062 183.297 146.732C183.1 146.237 182.968 145.511 183.198 145.18C183.462 144.784 184.153 144.586 184.713 144.454C185.009 144.388 185.371 144.718 185.701 144.883C191.035 147.954 196.336 151.025 201.67 154.128C202.229 154.491 202.657 155.02 202.921 155.251Z" fill="white"/>
<path d="M183.659 175.359C183.363 175.755 183.099 176.35 182.704 176.482C182.243 176.647 181.618 176.482 181.124 176.317C180.86 176.217 180.696 175.821 180.531 175.557C177.403 170.142 174.308 164.727 171.18 159.345C171.016 159.048 170.752 158.718 170.818 158.454C170.95 157.892 171.114 157.199 171.542 156.935C171.905 156.704 172.629 156.836 173.09 157.001C173.419 157.133 173.617 157.595 173.814 157.958C176.876 163.307 179.971 168.623 183.033 173.972C183.231 174.368 183.396 174.765 183.659 175.359Z" fill="white"/>
<path d="M144.873 73.5655C144.873 76.7023 144.873 79.839 144.873 82.9427C144.873 83.9663 144.577 84.7587 143.425 84.8908C142.503 84.9898 141.943 84.2304 141.91 82.9097C141.91 82.6125 141.91 82.3484 141.91 82.0512C141.91 77.0655 141.91 72.0797 141.91 67.094C141.91 66.1034 141.91 65.1129 141.91 64.1223C141.91 63.0988 142.206 62.3063 143.359 62.2073C144.281 62.1412 144.873 62.8676 144.873 64.1553C144.873 67.3251 144.873 70.4288 144.873 73.5655Z" fill="white"/>
<path d="M100.225 118.437C96.9657 118.437 93.739 118.437 90.4793 118.437C89.5245 118.437 88.8331 118.008 88.8331 117.017C88.8001 115.928 89.5574 115.532 90.5452 115.498C90.8745 115.498 91.2037 115.498 91.533 115.498C95.9779 115.498 100.39 115.498 104.835 115.498C106.514 115.498 108.193 115.465 109.873 115.532C110.827 115.565 111.453 116.093 111.42 117.083C111.387 118.008 110.762 118.437 109.84 118.47C109.51 118.47 109.181 118.47 108.852 118.47C105.987 118.437 103.09 118.437 100.225 118.437Z" fill="white"/>
<path d="M198.838 127.615C201.933 127.615 204.995 127.615 208.09 127.615C209.407 127.615 210.131 128.176 210.065 129.101C209.967 130.257 209.176 130.554 208.156 130.554C201.867 130.554 195.578 130.554 189.322 130.554C188.137 130.554 187.38 129.926 187.478 129.035C187.577 127.879 188.367 127.582 189.388 127.582C192.516 127.615 195.677 127.615 198.838 127.615Z" fill="white"/>
<path d="M156.957 172.487C156.957 175.458 156.957 178.43 156.957 181.369C156.957 181.699 156.957 182.029 156.924 182.359C156.825 183.251 156.365 183.845 155.41 183.812C154.554 183.779 154.093 183.251 153.994 182.392C153.961 182.029 153.961 181.666 153.961 181.27C153.961 175.425 153.961 169.581 153.961 163.737C153.961 163.374 153.961 163.011 153.994 162.614C154.06 161.69 154.587 161.129 155.476 161.162C156.332 161.162 156.825 161.723 156.891 162.581C156.924 162.945 156.924 163.308 156.924 163.704C156.957 166.61 156.957 169.548 156.957 172.487Z" fill="white"/>
</svg>
