<svg width="144" height="144" viewBox="0 0 144 144" fill="none" xmlns="http://www.w3.org/2000/svg">
<path d="M141.732 48.2408C140.724 52.1288 138.06 54.2168 134.496 55.6568C128.088 58.2488 121.752 61.0928 115.38 63.7928C114.48 64.1888 114.192 64.6568 114.228 65.5928C114.264 69.9848 114.156 74.4128 114.264 78.8048C114.48 85.4648 111.456 90.5048 106.416 94.4648C100.368 99.2168 93.3117 101.809 85.8237 103.141C72.3597 105.589 59.1117 104.869 46.3317 99.5048C41.5797 97.4888 37.2597 94.7528 33.9117 90.6848C31.2837 87.5168 29.9517 83.9168 29.9517 79.8128C29.9517 75.0248 29.9157 70.2728 29.9877 65.5208C29.9877 64.5848 29.6997 64.1528 28.8717 63.8288C25.7757 62.5688 22.7157 61.2008 19.6197 59.9048C19.3317 59.7968 19.0437 59.7248 18.5757 59.5448C18.5757 60.1208 18.5757 60.5528 18.5757 61.0208C18.5757 70.0568 18.5757 79.0928 18.5757 88.1288C18.5757 88.9928 18.6837 89.5688 19.6197 90.0368C22.5357 91.4768 24.5877 95.7248 21.4557 100.117C24.0477 102.709 23.5077 106.201 23.9037 109.441C24.3717 113.365 24.6237 117.289 25.0197 121.249C25.3437 124.921 23.6517 126.793 19.9437 126.793C17.4957 126.793 15.0477 126.829 12.5997 126.793C9.57566 126.757 7.77566 124.669 8.06366 121.645C8.56766 116.137 8.99966 110.593 9.61166 105.085C9.79166 103.609 10.6197 102.241 11.0877 100.801C11.2317 100.369 11.3037 99.7568 11.1237 99.4328C9.03566 95.7968 10.0437 91.9808 13.7157 89.8928C14.0757 89.6768 14.4357 89.1008 14.4357 88.7048C14.4717 78.6608 14.4717 68.6168 14.4357 58.5728C14.4357 58.1408 13.9677 57.5288 13.5717 57.3488C11.8077 56.5208 10.0077 55.8008 8.20766 55.0088C4.64366 53.4608 2.55566 50.7608 2.55566 46.8008C2.55566 42.8408 4.57166 40.1048 8.17166 38.5568C26.8557 30.5288 45.5397 22.5008 64.2237 14.5088C69.5877 12.2048 74.9877 12.2768 80.3157 14.5808C98.8557 22.5368 117.432 30.5288 135.972 38.4848C139.104 39.8168 140.94 42.1208 141.804 45.3248C141.732 46.2608 141.732 47.2328 141.732 48.2408ZM23.2917 56.5568C23.2557 56.6648 23.2557 56.7368 23.2197 56.8448C23.6517 57.0608 24.1197 57.2768 24.5517 57.4568C38.0157 63.2528 51.5157 69.0128 64.9797 74.8448C69.7677 76.9328 74.4117 76.8968 79.1637 74.8448C89.6757 70.2728 100.224 65.8088 110.736 61.2728C118.512 57.9248 126.288 54.5768 134.064 51.2648C135.684 50.5808 136.98 49.6088 137.376 47.7728C137.88 45.2168 136.8 43.4168 133.992 42.1928C115.632 34.2728 97.2357 26.3888 78.8397 18.4688C74.1957 16.4528 69.6597 16.5608 65.0157 18.5768C46.8357 26.4248 28.6197 34.2368 10.4037 42.0488C9.82766 42.3008 9.25166 42.5528 8.71166 42.9128C5.90366 44.7128 5.86766 48.8888 8.78366 50.5088C10.9077 51.6968 13.2117 52.5608 15.4797 53.4968C15.7677 53.6048 16.1637 53.5328 16.5237 53.4608C24.6597 52.0568 32.7597 50.6528 40.8957 49.2488C47.3757 48.1328 53.8197 46.9808 60.2997 45.8288C60.6957 45.7568 61.2717 45.5768 61.4157 45.2528C62.6037 42.5528 64.9077 41.3648 67.5357 40.7528C72.1797 39.6728 76.7517 39.7448 80.8197 42.6248C83.9157 44.8208 83.8437 48.4568 80.8197 50.7248C78.2997 52.5968 75.3837 53.1728 72.3597 53.1368C69.0837 53.1368 65.9157 52.6688 63.2877 50.5088C62.5317 49.8608 61.8837 49.7528 60.9837 49.9328C52.3437 51.4808 43.6677 52.9568 35.0277 54.4688C31.0317 55.1888 27.1797 55.8728 23.2917 56.5568ZM34.0197 66.0608C34.1637 68.9048 34.0197 71.4968 34.5237 73.9448C35.5317 78.7328 39.0237 81.7208 42.9477 84.1328C50.8317 89.0288 59.5797 90.9008 68.6877 91.2608C72.5757 91.4048 76.4637 91.0448 80.3517 90.9008C81.8637 90.8288 82.7997 91.4768 82.9437 92.6648C83.0877 93.9968 82.2957 94.8608 80.7477 95.0408C80.6757 95.0408 80.5677 95.0408 80.4597 95.0768C74.1597 95.7248 67.8957 95.7248 61.6317 94.8248C54.2517 93.7448 47.1957 91.7288 40.8237 87.7328C38.5917 86.3288 36.5757 84.5648 34.4517 82.9448C34.7757 84.7088 35.6757 86.2928 36.7917 87.6968C40.5357 92.4488 45.6477 95.1488 51.2277 96.9848C65.0877 101.557 79.0197 101.521 92.8797 96.9848C97.8837 95.3288 102.492 92.9168 106.164 89.0288C107.82 87.2648 109.152 85.2848 109.692 82.6208C109.296 82.9448 109.08 83.0888 108.9 83.2688C106.38 85.8968 103.428 87.8768 100.224 89.4968C98.7117 90.2888 97.4877 90.0728 96.9117 88.9208C96.3357 87.7688 96.8397 86.6528 98.2797 85.8248C99.7197 84.9608 101.232 84.2048 102.564 83.1968C110.016 77.7248 110.448 73.5488 109.764 66.2768C109.26 66.4928 108.756 66.6728 108.252 66.8888C99.0717 70.8488 89.8557 74.7368 80.6757 78.7328C74.9157 81.2528 69.1917 81.2888 63.4317 78.7688C59.3637 76.9688 55.2957 75.2408 51.1917 73.5128C45.6477 71.0648 40.0317 68.6528 34.0197 66.0608ZM20.8797 122.545C20.3397 116.533 19.8357 110.665 19.2597 104.833C19.1157 103.501 18.3237 102.601 16.9197 102.349C15.1557 102.025 13.8237 103.321 13.6437 105.589C13.2837 109.549 12.9237 113.545 12.5637 117.505C12.4197 119.161 12.3117 120.817 12.1677 122.545C15.1197 122.545 17.8917 122.545 20.8797 122.545ZM65.3397 46.6928C67.0677 49.7528 76.7877 49.9328 78.8397 46.7288C77.1117 43.6328 67.2837 43.5608 65.3397 46.6928ZM18.7917 95.6888C18.7917 94.3928 17.7477 93.3848 16.4517 93.3848C15.1917 93.3848 14.1117 94.4648 14.1477 95.7248C14.1477 96.9488 15.2997 98.0648 16.5237 98.0648C17.7837 98.0648 18.7917 96.9848 18.7917 95.6888Z" fill="white"/>
<path d="M94.1401 90.7919C94.1401 91.6199 93.5281 92.3039 92.5201 92.6279C91.1521 93.0599 89.7481 93.4559 88.3441 93.7799C87.0121 94.1039 85.9321 93.4559 85.6801 92.3399C85.3921 91.1519 85.9681 90.1439 87.2641 89.7479C88.6321 89.3159 90.0361 88.9199 91.4401 88.6319C92.9521 88.3079 94.1041 89.1719 94.1401 90.7919Z" fill="white"/>
</svg>
