<svg width="148" height="148" viewBox="0 0 148 148" fill="none" xmlns="http://www.w3.org/2000/svg">
<path d="M75.8133 2.9605C77.7743 3.9225 79.7723 4.8105 81.6963 5.8465C83.5833 6.8825 85.5073 7.0305 87.5793 6.4385C91.1683 5.4395 94.4613 6.1055 97.3473 8.3995C98.3833 9.2135 99.2343 10.2865 99.9743 11.3965C101.38 13.4685 103.23 14.6155 105.672 14.8375C110.593 15.3185 114.404 18.6115 115.44 23.4585C115.995 26.1965 117.401 28.0835 119.88 29.3785C124.283 31.6355 126.466 36.2605 125.541 41.2555C125.097 43.6605 125.689 45.6955 127.28 47.5455C130.943 51.8375 131.35 56.3145 128.538 61.1985C127.354 63.2705 127.169 65.3425 127.983 67.5625C129.833 72.7795 128.612 77.1825 124.283 80.6605C122.433 82.1405 121.36 83.9905 121.397 86.3585C121.471 92.2045 117.475 96.3855 112.887 97.4215C112.517 97.4955 112.184 97.6805 111.851 97.8285C109.52 98.9385 109.335 99.4565 110.334 101.825C113.812 110.261 117.327 118.697 120.768 127.132C122.063 130.314 120.472 133.496 117.29 134.089C116.328 134.273 115.255 134.089 114.33 133.829C110.556 132.757 106.819 131.572 103.119 130.388C102.083 130.055 101.528 130.278 101.047 131.24C99.2713 134.717 97.3473 138.158 95.5713 141.636C94.5353 143.671 92.9813 144.893 90.6133 144.745C88.3193 144.596 86.9503 143.264 86.0993 141.193C82.3993 132.238 78.6993 123.322 74.9993 114.368C74.7773 113.887 74.5553 113.368 74.1853 112.518C73.8153 113.295 73.5563 113.776 73.3713 114.22C69.6343 123.211 65.9343 132.201 62.1973 141.156C60.9763 144.115 58.2753 145.521 55.6853 144.338C54.5753 143.82 53.5023 142.746 52.8733 141.673C50.9123 138.307 49.0993 134.792 47.3233 131.313C46.7683 130.24 46.1763 129.981 45.0293 130.351C41.3663 131.535 37.6293 132.646 33.9293 133.792C31.7463 134.495 29.7853 134.236 28.2313 132.46C26.7143 130.758 26.6773 128.835 27.5283 126.763C31.1173 118.179 34.6323 109.557 38.2583 100.973C38.7763 99.7895 38.5543 99.0495 37.5553 98.4575C36.7043 97.9765 35.8533 97.5325 34.9653 97.2365C29.9703 95.6085 27.1213 91.9825 26.9363 86.6915C26.8623 83.9905 25.7893 81.9555 23.6803 80.2905C19.7953 77.2565 18.4633 72.4835 20.1653 67.8585C21.1273 65.2685 20.8683 62.9745 19.4623 60.6065C16.9833 56.4255 17.4273 51.5045 20.6093 47.8785C22.4223 45.8435 23.1253 43.6235 22.6443 40.8855C21.7933 35.9275 24.0133 31.5615 28.4903 29.2305C30.8213 28.0095 32.1903 26.1965 32.7453 23.6435C33.8553 18.4635 37.4813 15.2815 42.6983 14.7265C44.9923 14.5045 46.7683 13.4315 48.1003 11.5075C51.4303 6.5495 55.3523 5.0325 61.1983 6.4385C63.0853 6.8825 64.8243 6.5865 66.5263 5.6985C68.4503 4.6625 70.4483 3.7745 72.4093 2.8125C73.5933 2.9605 74.7033 2.9605 75.8133 2.9605ZM96.0523 104.636C100.677 105.006 103.119 103.563 104.599 100.011C105.968 96.6815 108.336 94.4985 111.777 93.4255C112.702 93.1295 113.59 92.7595 114.404 92.2045C116.476 90.7615 117.216 88.6525 117.253 86.2105C117.29 82.6215 118.77 79.7355 121.582 77.4785C124.579 75.0735 125.319 72.4835 123.987 68.7835C122.84 65.4905 123.099 62.3455 124.801 59.3115C126.91 55.6115 126.651 53.2805 123.913 49.9875C121.767 47.3975 120.842 44.4375 121.36 41.1075C122.026 37.0005 120.953 34.7065 117.253 32.6715C114.108 30.9325 112.184 28.3425 111.481 24.7905C110.778 21.3125 108.558 19.3145 105.043 18.9445C101.454 18.5375 98.6053 16.8725 96.5703 13.8385C94.4243 10.5825 91.9083 9.5465 88.1713 10.5455C84.6933 11.4705 81.5113 10.8415 78.5883 8.7695C75.4063 6.5125 72.7423 6.5125 69.5603 8.7695C66.6373 10.8415 63.4553 11.4705 59.9773 10.5455C56.3143 9.5835 53.7243 10.5825 51.6523 13.7645C49.6173 16.8725 46.7683 18.5745 43.1053 18.9815C39.6643 19.3515 37.3703 21.3495 36.7413 24.7165C36.0013 28.4165 34.0033 31.0805 30.7103 32.8565C27.4543 34.5955 26.1593 37.0745 26.7883 40.5895C27.4543 44.4375 26.4183 47.6935 23.8653 50.5425C21.7563 52.9105 21.3863 55.9075 23.0143 58.6085C25.1233 62.0865 25.4563 65.6385 24.0133 69.4495C22.9403 72.2615 23.7543 75.2215 26.1593 77.0345C29.4523 79.5505 31.0063 82.7695 31.0803 86.9135C31.1173 90.0215 32.9673 92.3155 35.9643 93.2405C39.7753 94.3505 42.3653 96.7185 43.8453 100.381C45.1033 103.489 47.7673 105.007 51.0973 104.711C54.6123 104.414 57.6463 105.487 60.1253 108.003C63.2333 111.074 65.5273 111.519 69.4493 109.78C72.5203 108.411 75.6283 108.411 78.6993 109.78C82.6213 111.556 84.9153 111.074 88.0233 108.003C90.5023 105.562 93.4623 104.525 96.0523 104.636ZM41.3663 104.488C37.9993 112.628 34.7063 120.583 31.4503 128.576C31.3023 128.945 31.3393 129.5 31.5243 129.796C31.6723 129.981 32.3013 129.981 32.6343 129.87C36.4823 128.724 40.2933 127.54 44.1413 126.393C47.3233 125.431 49.3583 126.282 50.9123 129.205C52.7253 132.572 54.4643 135.975 56.3143 139.342C56.5733 139.824 57.0543 140.193 57.4613 140.6C57.8313 140.156 58.3123 139.786 58.4973 139.305C61.0133 133.311 63.4923 127.317 65.9713 121.323C66.8593 119.177 67.7473 116.994 68.7093 114.663C63.8993 115.625 60.1253 114.146 56.9803 110.705C55.6113 109.188 53.6873 108.744 51.6523 108.854C50.8753 108.892 50.0983 108.965 49.3213 108.891C46.1023 108.632 43.5493 107.115 41.3663 104.488ZM79.7723 114.663C79.7723 114.885 79.7353 114.996 79.7723 115.07C83.1763 123.285 86.5433 131.499 89.9843 139.713C90.1323 140.083 90.6133 140.563 90.9093 140.526C91.2423 140.49 91.6493 140.046 91.8343 139.676C93.6843 136.271 95.4603 132.83 97.2733 129.426C98.9753 126.244 100.899 125.43 104.303 126.466C107.929 127.576 111.518 128.687 115.144 129.76C115.662 129.908 116.254 129.796 116.809 129.833C116.772 129.278 116.846 128.649 116.661 128.168C113.59 120.657 110.482 113.184 107.374 105.71C107.226 105.377 107.041 105.043 106.819 104.636C103.97 107.966 100.492 109.335 96.2743 108.891C94.2393 108.669 92.4263 109.409 91.0573 110.926C88.0233 114.293 84.3233 115.551 79.7723 114.663Z" fill="white"/>
<path d="M93.9064 81.3621C93.8694 83.1381 93.2404 84.3221 91.9084 85.0621C90.5024 85.8761 89.0594 85.8391 87.7274 84.9511C83.9904 82.5091 80.2904 79.9931 76.5904 77.4771C74.1484 75.8491 74.1484 75.8491 71.6694 77.5141C68.1544 79.8821 64.6394 82.2501 61.1244 84.6181C59.2004 85.8761 57.4984 85.9501 55.9814 84.8031C54.5014 83.7301 54.0944 82.1021 54.6864 79.9561C56.0184 75.2571 57.3134 70.5581 58.7194 65.8591C58.9784 65.0451 58.7934 64.6011 58.1644 64.1201C54.2794 61.1231 50.4684 58.0891 46.6204 55.0921C44.8444 53.6861 44.2524 52.0581 44.8814 50.2821C45.4734 48.5801 46.9164 47.6551 49.1364 47.5811C53.9464 47.3961 58.7194 47.2111 63.5294 47.1001C64.4914 47.0631 64.9724 46.7671 65.3054 45.8421C66.8964 41.3281 68.5614 36.8141 70.2264 32.3371C71.0034 30.1911 72.3724 29.0811 74.2224 29.1181C76.0724 29.1181 77.4044 30.1911 78.1814 32.3741C79.8464 36.8881 81.4744 41.3651 83.1024 45.8791C83.3984 46.7301 83.8054 47.0631 84.7674 47.1001C89.6514 47.2111 94.5354 47.3961 99.4194 47.6181C102.453 47.7291 104.377 50.1711 103.489 52.7981C103.193 53.6861 102.453 54.5371 101.676 55.1661C97.9394 58.1631 94.1654 61.1231 90.3544 64.0461C89.5774 64.6381 89.3554 65.1191 89.6514 66.1181C91.0204 70.7061 92.3154 75.3311 93.6104 79.9191C93.7214 80.4741 93.8324 81.0661 93.9064 81.3621ZM89.5774 81.1401C89.4294 80.4741 89.3184 80.0301 89.2074 79.6231C87.9864 75.2941 86.7284 70.9281 85.5074 66.5991C84.8044 64.0461 85.2114 62.8251 87.2834 61.1601C90.8724 58.3481 94.4614 55.5361 98.0504 52.7241C98.3464 52.5021 98.6424 52.2061 99.0864 51.7991C98.6424 51.7621 98.4204 51.7251 98.1984 51.7251C93.4624 51.5401 88.6894 51.3551 83.9534 51.2071C81.3634 51.0961 80.2904 50.3561 79.4024 47.9511C77.8484 43.6591 76.2574 39.4041 74.7034 35.1121C74.5554 34.7051 74.3704 34.3351 74.1114 33.7061C73.8154 34.4091 73.6674 34.8531 73.5194 35.2601C71.9654 39.5521 70.4114 43.8441 68.8204 48.0991C68.0434 50.2451 66.8224 51.0961 64.5654 51.1701C61.7904 51.2811 59.0524 51.3921 56.2774 51.4661C53.9834 51.5031 51.7264 51.4661 49.4324 51.4661C49.3954 51.6141 49.3954 51.7991 49.3584 51.9471C49.6544 52.2061 49.9504 52.4651 50.2464 52.7241C53.9464 55.6101 57.6464 58.5331 61.3464 61.4191C62.9744 62.6771 63.4184 64.2681 62.8634 66.1921C62.3084 68.1531 61.7534 70.0771 61.1984 72.0381C60.3474 74.9981 59.5334 77.9581 58.6084 81.1771C59.2004 80.8071 59.5704 80.6221 59.9034 80.4001C63.6774 77.8471 67.4884 75.2941 71.2624 72.7411C73.4454 71.2611 74.7774 71.2611 76.9604 72.7411C80.7344 75.2941 84.5454 77.8471 88.3194 80.4001C88.6894 80.6221 89.0224 80.8071 89.5774 81.1401Z" fill="white"/>
<path d="M74.2217 17.538C94.5347 17.649 111.666 32.19 115.033 52.207C115.107 52.725 115.181 53.206 115.218 53.724C115.366 55.019 114.663 55.981 113.553 56.166C112.369 56.351 111.407 55.722 111.185 54.39C110.593 50.579 109.631 46.916 108.003 43.401C101.528 29.378 86.6907 19.98 70.0037 21.941C53.0577 23.939 40.0707 36.371 37.2957 52.614C37.1847 53.243 37.1477 53.909 36.9997 54.538C36.7037 55.722 35.7417 56.351 34.6317 56.166C33.4847 55.981 32.7077 54.945 33.0037 53.687C33.8917 50.061 34.5207 46.361 35.9267 42.92C42.2167 27.528 57.6087 17.427 74.2217 17.538Z" fill="white"/>
<path d="M74.148 100.455C53.576 100.455 35.594 84.8781 33.115 64.8981C32.893 63.0111 33.411 62.0121 34.78 61.7901C36.112 61.5681 37 62.4931 37.259 64.4541C38.332 71.9281 41.366 78.5511 46.546 84.0271C56.943 94.9791 69.708 98.9011 84.249 94.7941C98.975 90.6131 107.781 80.4011 110.926 65.4161C111.037 64.8241 111.074 64.2321 111.222 63.6401C111.518 62.3451 112.443 61.6051 113.553 61.7901C114.737 61.9751 115.44 63.0111 115.292 64.3431C114.737 68.7091 113.516 72.8901 111.592 76.8861C104.673 91.2051 90.058 100.418 74.148 100.455Z" fill="white"/>
</svg>
