<svg width="109" height="111" viewBox="0 0 109 111" fill="none" xmlns="http://www.w3.org/2000/svg">
<g filter="url(#filter0_d_1158_64)">
<path d="M104.9 56.7263C104.401 57.8288 103.561 58.2225 102.38 58.17C100.805 58.0913 99.2301 58.1438 97.6551 58.0913C96.9726 58.065 96.5263 58.2488 96.1326 58.8525C95.2401 60.2175 94.2426 61.53 93.3238 62.8688C92.7988 63.63 92.1426 64.1288 91.1976 63.9713C90.2526 63.8138 89.7801 63.1575 89.5176 62.265C89.0451 60.6638 88.4938 59.0888 88.0476 57.4875C87.8638 56.8838 87.5488 56.5688 86.9713 56.4113C85.3701 55.965 83.7951 55.44 82.1938 54.9413C81.3538 54.6788 80.6976 54.2588 80.5401 53.34C80.3826 52.395 80.7763 51.7125 81.5638 51.1875C82.9551 50.2163 84.3463 49.2188 85.7376 48.2475C86.2101 47.9063 86.4201 47.5388 86.3938 46.9613C86.3151 45.2813 86.3151 43.6275 86.2888 41.9475C86.2626 41.0288 86.4988 40.2413 87.3651 39.795C88.2313 39.3488 88.9926 39.585 89.7276 40.1625C91.0663 41.1863 92.4313 42.2363 93.8488 43.1813C94.1901 43.4175 94.7676 43.4963 95.1613 43.3913C96.8151 42.8925 98.4688 42.315 100.096 41.7638C100.936 41.475 101.724 41.5275 102.354 42.1838C102.958 42.8138 103.036 43.5488 102.748 44.3625C102.17 46.0425 101.566 47.6963 101.068 49.3763C100.963 49.7175 101.015 50.2425 101.199 50.505C102.406 52.2113 103.666 53.865 104.926 55.5188C104.9 55.9388 104.9 56.3325 104.9 56.7263ZM97.7601 46.6988C96.7101 47.0663 95.8176 47.3288 94.9251 47.6438C94.0851 47.9325 93.3238 47.8013 92.6413 47.25C91.9326 46.6988 91.1976 46.1738 90.3051 45.5175C90.3051 46.5413 90.2788 47.355 90.3051 48.1425C90.3576 49.245 89.9901 50.085 89.0188 50.6888C88.3101 51.135 87.6538 51.66 86.8401 52.2375C87.8113 52.5525 88.5988 52.8413 89.4126 53.0513C90.4626 53.3138 91.0926 53.9438 91.3813 54.9938C91.5913 55.8338 91.9063 56.6213 92.2213 57.5925C92.8776 56.6738 93.4288 55.9125 93.9538 55.1513C94.4526 54.4688 95.0826 54.1013 95.9488 54.1538C96.8676 54.18 97.8126 54.1538 98.9413 54.1538C98.2851 53.2875 97.7601 52.5525 97.2088 51.8438C96.6313 51.1088 96.5001 50.3475 96.8413 49.455C97.1563 48.615 97.4188 47.7488 97.7601 46.6988Z" fill="white"/>
<path d="M24.3383 2.09961C25.8083 3.17586 27.2783 4.27836 28.8008 5.30211C29.1158 5.51211 29.6671 5.59086 30.0346 5.48586C31.4783 5.06586 32.8958 4.56711 34.3133 4.06836C35.127 3.77961 35.862 3.85836 36.492 4.46211C37.1483 5.09211 37.2271 5.85336 36.9383 6.71961C36.4396 8.11086 36.0195 9.52836 35.5208 10.8934C35.3108 11.4709 35.3896 11.8646 35.7571 12.3109C36.6233 13.4134 37.437 14.5684 38.3033 15.6971C38.8546 16.4321 39.1433 17.1934 38.6971 18.0596C38.2246 18.9784 37.4108 19.1884 36.4658 19.1621C35.0483 19.1359 33.657 19.0571 32.2395 19.1096C31.8458 19.1359 31.3208 19.3984 31.0583 19.7134C30.1395 20.8684 29.3258 22.1021 28.4858 23.3096C27.9871 24.0446 27.3046 24.4384 26.4121 24.3071C25.4933 24.1759 25.0208 23.5459 24.7583 22.7059C24.3645 21.4196 23.8921 20.1596 23.6033 18.8734C23.3933 18.0071 22.947 17.6396 22.1333 17.4296C20.8733 17.1146 19.6396 16.6421 18.3796 16.2746C17.5396 16.0384 16.8833 15.5659 16.7258 14.6734C16.5421 13.7284 16.9883 13.0459 17.7496 12.5209C18.9308 11.7071 20.0858 10.8409 21.2933 10.0534C21.8446 9.71211 22.002 9.29211 21.9758 8.68836C21.897 7.45461 21.9758 6.19461 21.8708 4.96086C21.792 3.75336 22.1333 2.78211 23.1833 2.15211C23.5508 2.09961 23.9446 2.09961 24.3383 2.09961ZM25.9921 8.00586C25.8608 9.29211 26.0183 10.4996 25.5458 11.3659C25.0733 12.2584 23.997 12.8621 23.0258 13.7284C25.7558 13.8334 27.0683 15.3034 27.2783 17.9021C28.1446 16.9309 28.6958 15.8809 29.5883 15.4084C30.4545 14.9621 31.6621 15.0934 32.9483 14.9621C30.9533 13.2821 30.6645 11.3134 31.9508 9.00336C29.6408 10.3159 27.6983 10.0534 25.9921 8.00586Z" fill="white"/>
<path d="M53.4233 50.9777C54.1583 50.1902 54.9195 49.3239 55.7333 48.5102C57.5445 46.6727 59.382 44.8352 61.2195 43.0239C62.2695 41.9739 63.477 41.8689 64.317 42.7352C65.1308 43.5752 65.0258 44.7564 64.0283 45.7539C61.6395 48.1689 59.2245 50.5839 56.8095 52.9727C56.5733 53.2089 56.3633 53.4452 56.0745 53.7602C56.7045 54.4689 57.3345 55.0989 57.912 55.8077C59.3295 57.5927 60.747 59.4039 62.112 61.2414C62.4533 61.6877 62.7683 61.8452 63.3195 61.7664C70.9583 60.7164 77.6258 62.7902 83.2958 67.9877C84.5295 69.1164 84.687 70.2977 83.8208 71.2164C82.9546 72.1089 81.852 72.0039 80.6445 70.8752C76.6283 67.1214 71.8245 65.3364 66.3645 65.3889C65.892 65.3889 65.3933 65.4677 65.052 65.5202C65.997 67.9877 67.0208 70.4027 67.8345 72.8702C68.5433 74.9964 68.7795 77.2014 68.3858 79.4589C67.8345 82.6089 66.1545 84.8139 63.0833 85.8114C58.122 87.4389 53.1345 88.9877 48.147 90.5889C35.9145 94.4739 23.6558 98.3589 11.4233 102.27C10.137 102.664 8.90329 102.874 7.59079 102.401C5.01829 101.456 3.75829 98.7789 4.62454 95.9964C6.12079 91.2452 7.61704 86.5202 9.13954 81.7952C13.0245 69.5102 17.0145 57.2777 20.7945 44.9664C22.5795 39.1389 27.042 38.1152 31.032 38.5614C34.2345 38.9289 37.1745 40.0577 40.0358 41.4752C40.482 41.6852 40.902 41.9214 41.6633 42.3152C41.5583 40.4252 41.5845 38.7452 41.3483 37.0914C40.7445 32.8389 38.8545 29.2164 35.8883 26.1189C35.1008 25.3052 34.9695 24.4389 35.4683 23.6252C35.9145 22.8639 36.807 22.4702 37.6733 22.7589C38.0933 22.8902 38.487 23.1789 38.802 23.4939C44.157 29.1902 46.3095 35.9364 45.312 43.6802C45.2595 44.0214 45.3908 44.5464 45.6533 44.7564C48.0945 46.7777 50.5883 48.7464 53.0558 50.7414C53.0558 50.7939 53.1608 50.8202 53.4233 50.9777ZM52.9245 84.9452C48.7508 83.3439 45.207 81.1914 41.8733 78.7239C40.6133 77.7789 40.3245 76.7289 41.0333 75.7314C41.742 74.7077 42.9233 74.6814 44.2095 75.5739C45.6008 76.5452 46.992 77.5427 48.462 78.4089C51.6908 80.3252 55.0245 81.9527 58.8308 82.3464C63.0308 82.7664 65.0258 80.7452 64.5795 76.5714C64.1595 72.8964 62.6108 69.6152 60.747 66.4127C60.3008 66.5702 59.907 66.6752 59.5133 66.8327C57.1245 67.8039 54.972 69.1427 53.1083 70.9277C51.9008 72.0564 50.8245 72.1614 49.932 71.2689C49.0133 70.3239 49.1708 69.2214 50.457 68.0664C51.1658 67.4102 51.9008 66.7014 52.7145 66.1764C54.552 65.0214 56.4683 63.9452 58.4633 62.7639C56.8095 60.7689 55.077 58.6689 53.2133 56.4377C52.4783 57.2252 51.927 57.8814 51.3233 58.4852C49.4858 60.3489 47.622 62.1864 45.7583 64.0502C45.1545 64.6539 44.4195 65.0739 43.6583 64.6277C43.107 64.3127 42.4508 63.6564 42.372 63.1052C42.2933 62.4752 42.687 61.6352 43.1595 61.1627C45.2858 58.9314 47.4908 56.7789 49.6695 54.6002C49.9058 54.3639 50.142 54.1014 50.4833 53.7339C48.3045 51.9489 46.2308 50.2427 44.0783 48.4577C43.8683 48.9302 43.737 49.2189 43.6058 49.5339C42.4245 52.3427 40.7708 54.8364 38.6183 56.9889C37.752 57.8552 36.6233 57.9339 35.8095 57.1727C34.9433 56.3852 34.917 55.2564 35.757 54.2852C35.9408 54.0752 36.177 53.8652 36.3608 53.6289C38.277 51.4764 39.7208 49.0877 40.587 46.2789C38.172 44.8614 35.757 43.6277 33.1058 42.9977C31.8195 42.6827 30.4808 42.4464 29.142 42.4464C26.3595 42.4202 24.7845 43.7852 24.6795 46.5414C24.6008 48.0377 24.837 49.6127 25.2308 51.0827C26.4383 55.4927 28.8533 59.3252 31.5308 62.9739C32.3445 64.0764 32.2395 65.2314 31.3208 65.9402C30.3495 66.6752 29.1945 66.4652 28.3808 65.2839C27.2783 63.7089 26.1233 62.1339 25.1783 60.4802C24.0233 58.4852 23.052 56.4114 22.002 54.3639C21.9233 54.5739 21.8445 54.8364 21.7658 55.0727C18.537 65.1002 15.3608 75.1802 12.1583 85.2339C10.8983 89.1977 9.66454 93.1614 8.37829 97.0989C8.14204 97.8339 8.19454 98.4377 8.98204 98.7002C9.34954 98.8052 9.82204 98.6739 10.2158 98.5427C21.3983 94.9989 32.5808 91.4552 43.7633 87.8852C46.7295 86.9402 49.722 85.9689 52.9245 84.9452Z" fill="white"/>
<path d="M98.8624 13.6234C98.8362 17.7971 95.4499 21.1571 91.2762 21.1309C87.1549 21.1046 83.8212 17.7184 83.7949 13.5971C83.7949 9.42336 87.1812 6.03711 91.3287 6.03711C95.5024 6.03711 98.8887 9.44961 98.8624 13.6234ZM94.9249 13.5709C94.9249 11.5496 93.2974 9.94836 91.3024 9.97461C89.3074 10.0009 87.7324 11.6284 87.7324 13.6496C87.7587 15.6446 89.3862 17.2459 91.3812 17.2196C93.3762 17.1934 94.9512 15.5659 94.9249 13.5709Z" fill="white"/>
<path d="M94.0855 84.7872C94.0855 83.816 94.0592 83.0022 94.0855 82.1622C94.1117 80.9547 94.8992 80.1147 96.0017 80.0885C97.078 80.0622 97.9442 80.9022 97.9967 82.0835C98.023 82.9235 97.9967 83.7897 97.9967 84.761C98.863 84.761 99.6767 84.761 100.49 84.761C101.777 84.7872 102.643 85.5485 102.669 86.6772C102.695 87.8322 101.803 88.646 100.464 88.6985C99.6767 88.7247 98.9155 88.6985 97.9967 88.6985C97.9967 89.5122 97.9967 90.2472 97.9967 91.0085C97.9705 92.4522 97.2617 93.3185 96.0542 93.3447C94.8467 93.3447 94.0855 92.5047 94.0855 91.061C94.0855 90.326 94.0855 89.5647 94.0855 88.7247C93.2192 88.7247 92.4317 88.751 91.6442 88.7247C90.3055 88.6985 89.413 87.911 89.3867 86.756C89.3867 85.601 90.253 84.8135 91.618 84.7872C92.4055 84.7872 93.193 84.7872 94.0855 84.7872Z" fill="white"/>
<path d="M61.5875 17.9811C61.5875 17.0886 61.5613 16.3273 61.5875 15.5398C61.6138 14.1486 62.375 13.3086 63.53 13.3086C64.685 13.3086 65.4725 14.1486 65.4988 15.5136C65.525 16.3011 65.4988 17.0623 65.4988 17.9811C66.4175 17.9811 67.2313 17.9548 68.045 17.9811C69.305 18.0073 70.0925 18.7161 70.145 19.8186C70.1975 20.9736 69.41 21.7873 68.1238 21.8923C67.7038 21.9186 67.2838 21.8923 66.8375 21.8923C66.4438 21.8923 66.05 21.8923 65.4988 21.8923C65.4988 22.7061 65.525 23.4936 65.4988 24.2548C65.4725 25.6986 64.7113 26.5386 63.4775 26.5123C62.2963 26.4861 61.5875 25.6723 61.5613 24.2548C61.535 23.5198 61.5613 22.7586 61.5613 21.8923C60.695 21.8923 59.9075 21.9186 59.1463 21.8923C57.7813 21.8661 56.9413 21.1048 56.915 19.9236C56.915 18.7161 57.7288 17.9811 59.12 17.9548C59.8813 17.9811 60.6425 17.9811 61.5875 17.9811Z" fill="white"/>
<path d="M70.8278 38.1675C70.3028 37.7475 69.6465 37.4062 69.279 36.8812C68.8065 36.1725 68.964 35.3587 69.5415 34.7025C70.3553 33.81 71.2215 32.97 72.0878 32.13C73.584 30.6337 75.0803 29.1112 76.6028 27.6412C77.574 26.6962 78.6503 26.6437 79.4903 27.4312C80.2778 28.1662 80.409 29.3212 79.5953 30.1612C77.1803 32.655 74.7128 35.07 72.2453 37.5112C71.9303 37.7737 71.4315 37.8787 70.8278 38.1675Z" fill="white"/>
<path d="M89.9636 75.5215C91.0398 75.5215 91.9061 76.3615 91.9323 77.4115C91.9586 78.514 91.0661 79.4065 89.9373 79.3802C88.8611 79.354 87.9948 78.4877 88.0211 77.4377C88.0211 76.3877 88.9136 75.5215 89.9636 75.5215Z" fill="white"/>
<path d="M36.0204 69.0904C37.0967 69.1167 37.9367 69.9567 37.9104 71.0592C37.9104 72.1354 37.0179 73.0017 35.9679 73.0017C34.8917 73.0017 33.9467 72.0304 33.9992 70.9542C34.0517 69.9042 34.9442 69.0642 36.0204 69.0904Z" fill="white"/>
</g>
<defs>
<filter id="filter0_d_1158_64" x="-2" y="0" width="113" height="113" filterUnits="userSpaceOnUse" color-interpolation-filters="sRGB">
<feFlood flood-opacity="0" result="BackgroundImageFix"/>
<feColorMatrix in="SourceAlpha" type="matrix" values="0 0 0 0 0 0 0 0 0 0 0 0 0 0 0 0 0 0 127 0" result="hardAlpha"/>
<feOffset dy="4"/>
<feGaussianBlur stdDeviation="2"/>
<feComposite in2="hardAlpha" operator="out"/>
<feColorMatrix type="matrix" values="0 0 0 0 0 0 0 0 0 0 0 0 0 0 0 0 0 0 0.25 0"/>
<feBlend mode="normal" in2="BackgroundImageFix" result="effect1_dropShadow_1158_64"/>
<feBlend mode="normal" in="SourceGraphic" in2="effect1_dropShadow_1158_64" result="shape"/>
</filter>
</defs>
</svg>
