<svg width="138" height="138" viewBox="0 0 138 138" fill="none" xmlns="http://www.w3.org/2000/svg">
<path d="M82.3857 132.479C81.4197 131.893 81.1437 130.996 81.1437 129.857C81.1782 120.749 81.1437 111.676 81.2127 102.568C81.2127 101.774 81.5922 100.877 82.0752 100.256C84.3177 97.6344 86.5947 95.0124 89.0097 92.5284C91.4247 90.0099 91.6317 87.0429 91.3557 83.7309C89.5272 84.5244 87.7677 85.0419 85.8012 84.6624C83.9037 84.2829 82.3857 83.3514 81.0402 81.8334C79.2117 83.7309 77.0382 84.8694 74.3817 84.7659C71.7597 84.6969 69.6552 83.5584 67.9647 81.6264C62.9277 85.6629 59.6502 85.8354 54.8547 82.3164C54.0957 83.1789 53.3367 84.0069 52.6122 84.8694C53.8542 86.2149 55.3032 87.4224 56.3037 88.9059C57.8562 91.2519 59.2017 93.7704 60.4782 96.2544C61.2027 97.7034 60.7887 98.8074 59.6157 99.2214C58.5462 99.6354 57.6147 99.0489 57.0627 97.5999C54.8202 91.7694 51.0597 87.3189 45.1602 84.9729C43.4007 84.2484 41.4687 83.9379 39.5712 83.5584C38.6397 83.3859 37.7772 83.2479 37.4322 82.2129C37.0872 81.2469 37.6047 80.5914 38.2257 79.9359C42.7452 75.4509 47.2647 70.9314 51.7497 66.4119C53.4057 64.7559 53.9577 62.7894 53.3022 60.5469C52.6812 58.4079 51.1977 57.0624 48.9897 56.5794C47.0577 56.1309 45.2637 56.6139 43.8492 57.9939C38.8812 62.9274 33.8787 67.7919 29.0487 72.8634C24.4947 77.6589 24.5292 85.3524 28.9107 90.3204C30.1527 91.7349 31.5672 93.0114 32.8782 94.3914C33.8787 95.4264 33.9822 96.4959 33.1887 97.3239C32.3607 98.1519 31.3257 98.0484 30.2562 97.0134C29.1522 95.9094 28.0482 94.8054 26.9442 93.7014C20.2512 86.8704 20.2512 76.4859 26.9787 69.6549C30.3252 66.2394 33.7407 62.9274 37.0527 59.5119C37.5012 59.0634 37.7772 58.2699 37.8462 57.6144C37.9842 56.3034 37.8117 54.9579 38.0532 53.6814C38.7432 50.0244 41.0202 47.7474 44.6082 46.5054C43.4007 44.9184 42.2277 43.4004 41.0892 41.8824C38.7087 38.7774 39.8127 35.6034 43.5732 34.4994C50.6802 32.4294 57.7527 30.3594 64.8252 28.1859C65.5152 27.9789 66.2742 27.3924 66.6882 26.8059C70.8972 20.7684 75.0372 14.6964 79.2117 8.62436C81.4887 5.31236 84.8007 5.27786 87.0777 8.58986C91.2867 14.7309 95.4957 20.8719 99.7392 26.9784C100.084 27.4959 100.74 27.9444 101.361 28.1169C108.468 30.2559 115.609 32.3604 122.751 34.4649C126.718 35.6379 127.684 38.7429 125.166 42.0204C120.681 47.8509 116.161 53.6814 111.745 59.5464C111.331 60.0984 111.09 60.9264 111.055 61.6509C110.986 63.1689 111.09 64.6869 111.09 66.2049C111.09 67.5159 110.434 68.2749 109.33 68.3094C108.226 68.3439 107.467 67.6194 107.398 66.3429C107.295 64.2039 107.226 62.0649 107.295 59.9259C107.329 59.3049 107.709 58.6149 108.123 58.0974C112.78 51.9909 117.472 45.8844 122.164 39.8124C123.13 38.5359 123.096 38.3979 121.543 37.9494C114.126 35.7759 106.708 33.6024 99.3252 31.3599C98.5317 31.1184 97.7037 30.4974 97.2207 29.8419C92.8047 23.5284 88.4922 17.1804 84.1452 10.8324C83.1792 9.45236 83.0757 9.45236 82.1097 10.8324C77.7972 17.1114 73.4847 23.3559 69.2412 29.6694C68.5857 30.6699 67.7577 31.2219 66.6192 31.5324C59.3052 33.6369 52.0257 35.8104 44.7462 37.9494C43.2282 38.3979 43.1937 38.5704 44.1252 39.8124C45.0567 41.0199 45.9882 42.2274 46.9197 43.4349C48.1962 45.0909 49.3002 46.8504 51.4737 47.5404C52.3017 47.8164 52.9917 48.6444 53.8197 49.2999C54.1647 48.9204 54.5787 48.4719 55.0272 47.9889C53.7507 46.2984 52.4742 44.6769 51.2667 43.0554C49.9902 41.3649 50.3697 40.1574 52.3707 39.5364C54.3027 38.9499 56.2347 38.3979 58.1667 37.8459C59.4432 37.5009 60.4092 37.9839 60.6852 39.0879C60.9612 40.1229 60.4092 40.9854 59.1672 41.3994C57.9942 41.7789 56.8212 42.0894 55.4757 42.5034C56.3727 43.6764 57.1662 44.7459 58.0287 45.7809C58.1667 45.9534 58.5462 46.0224 58.7532 45.9534C62.7897 45.0909 65.9292 46.4709 68.4132 49.7829C70.4832 47.9544 72.8637 46.9884 75.6237 47.4024C78.3837 47.8164 80.4882 49.3344 81.9372 51.8529C83.5587 50.7489 85.2492 49.9899 87.2157 50.0244C91.2177 50.0934 94.7367 53.0949 94.9092 57.0969C95.1162 61.7889 95.0127 66.4809 95.0472 71.1729C95.0817 73.5879 94.7022 73.0014 96.8757 73.7949C97.9107 74.1744 98.9457 74.5194 99.9807 74.8989C99.9807 72.2424 100.015 69.7239 99.9807 67.1709C99.9462 64.1004 99.7737 60.9954 99.7737 57.9249C99.7737 57.2004 100.119 56.4069 100.567 55.8204C103.638 51.7494 106.777 47.7129 109.882 43.6764C110.158 43.3314 110.4 42.9519 110.745 42.5034C106.122 41.1234 101.637 39.6744 97.0482 38.5359C94.3917 37.8804 92.5977 36.5694 91.1487 34.2234C88.6647 30.2559 85.9047 26.4609 83.1447 22.4589C82.8342 22.9074 82.5582 23.2524 82.3167 23.6319C79.4532 27.8064 76.5897 31.9464 73.7607 36.1554C73.1742 37.0179 72.4842 37.6044 71.4492 37.8114C70.3797 38.0529 69.3102 38.4324 68.2407 38.7429C66.9987 39.0879 66.0672 38.6394 65.7567 37.6044C65.4117 36.5349 65.8947 35.4654 67.1367 35.2929C70.0347 34.9134 71.5182 33.0159 72.9672 30.7734C75.6237 26.6679 78.4527 22.6659 81.2472 18.6639C82.4547 16.9044 83.8002 16.8699 85.0077 18.6639C88.3887 23.5629 91.7352 28.4964 95.1507 33.3954C95.4957 33.8784 96.0822 34.3269 96.6687 34.4994C102.292 36.1899 107.916 37.8459 113.574 39.5019C115.989 40.1919 116.368 41.3649 114.85 43.3314C111.297 47.9544 107.709 52.5774 104.19 57.2349C103.81 57.7524 103.534 58.4769 103.534 59.0979C103.638 64.9629 103.81 70.8624 103.983 76.7274C104.052 79.2114 103.051 79.9359 100.705 79.1079C98.9112 78.4524 97.0827 77.8314 95.0817 77.1069C95.0817 78.3489 95.0472 79.4184 95.1162 80.4534C95.1507 80.7294 95.4612 81.1089 95.7372 81.1779C99.3942 82.5234 103.086 83.7999 106.743 85.1109C107.64 85.4214 107.847 85.0074 107.812 84.2484C107.743 81.6609 107.674 79.0734 107.605 76.4859C107.605 76.0374 107.571 75.5889 107.64 75.1404C107.847 74.1744 108.502 73.6224 109.468 73.6569C110.434 73.6914 111.159 74.2434 111.193 75.2439C111.331 78.6249 111.504 82.0059 111.4 85.3524C111.297 88.0089 108.433 89.6304 105.708 88.6989C102.879 87.7329 100.05 86.6979 97.2207 85.6974C96.5652 85.4559 95.9097 85.2489 95.0817 84.9729C95.0472 85.5249 95.0127 85.9734 95.0127 86.3874C95.0472 89.6994 93.9432 92.5629 91.6662 95.0124C89.5617 97.2894 87.4917 99.5664 85.4907 101.912C85.0767 102.395 84.8007 103.12 84.8007 103.741C84.7662 112.469 84.7662 121.198 84.8007 129.892C84.8007 131.03 84.5247 131.893 83.5242 132.479C83.2137 132.479 82.7997 132.479 82.3857 132.479ZM66.1017 65.3424C66.1017 61.8234 66.1017 58.2699 66.1017 54.7509C66.1017 54.6819 66.1017 54.5784 66.1017 54.5094C66.0327 51.1974 63.2037 48.8514 60.0297 49.5414C56.0277 50.4039 55.1652 54.2679 56.3382 57.9249C57.0972 60.3744 57.7527 62.7549 56.7867 65.1009C56.0277 66.9294 55.9587 68.7234 55.9932 70.6209C55.9932 72.3114 55.9932 74.0019 55.9932 75.6924C55.9932 78.8664 58.1667 81.1779 61.0992 81.1434C63.9627 81.1089 66.1017 78.8319 66.1017 75.7269C66.1017 72.2424 66.1017 68.7924 66.1017 65.3424ZM79.2462 66.0324C79.2462 62.7894 79.2807 59.5464 79.2462 56.3034C79.2462 55.6479 79.2117 54.9579 79.0392 54.3714C78.4182 52.1979 76.2447 50.8179 74.0022 51.0594C71.7252 51.3354 69.8277 53.1984 69.8277 55.5099C69.7587 62.5824 69.7932 69.6549 69.8277 76.6929C69.8277 76.9344 69.8967 77.1759 69.9312 77.4174C70.4832 79.7289 72.6222 81.3159 74.9337 81.1089C77.3487 80.9019 79.1772 79.0044 79.2462 76.5204C79.2807 73.0359 79.2462 69.5169 79.2462 66.0324ZM91.4247 67.4469C91.3902 67.4469 91.3902 67.4469 91.4247 67.4469C91.4247 64.2729 91.4592 61.0989 91.3902 57.9594C91.3212 55.4754 89.5272 53.7159 87.1812 53.7504C84.9042 53.7504 83.0412 55.4754 83.0067 57.8904C82.9377 64.2729 82.9377 70.6554 83.0067 77.0034C83.0067 78.8664 84.0417 80.2119 85.7667 80.8674C88.5612 81.9024 91.3212 79.9014 91.3902 76.7274C91.4592 73.6224 91.4247 70.5174 91.4247 67.4469ZM52.1982 71.5869C49.2657 74.5194 46.3332 77.4519 43.4352 80.3499C44.7117 80.8329 46.1952 81.3504 47.6097 81.9369C49.1967 82.6269 49.7832 82.6269 50.8527 81.2469C51.4737 80.4534 52.0947 79.4874 52.1637 78.5214C52.3362 76.2099 52.1982 73.8294 52.1982 71.5869ZM51.8877 53.6124C51.0597 50.9904 48.6792 49.6104 46.0227 49.9899C43.6422 50.3349 41.7792 52.4049 41.7102 54.8544C44.8497 52.5774 48.1617 52.1289 51.8877 53.6124Z" fill="white"/>
<path d="M67.8265 132.481C66.7915 131.929 66.5155 131.066 66.55 129.928C66.6535 125.753 65.9635 121.751 64.3075 117.922C62.7895 114.472 60.5125 111.677 57.028 110.021C55.786 109.435 55.441 108.434 55.9585 107.434C56.476 106.433 57.4765 106.192 58.7185 106.778C61.4095 108.02 63.5485 109.849 65.308 112.195C65.653 112.643 65.9635 113.126 66.5845 113.575C66.5845 112.333 66.5845 111.125 66.5845 109.883C66.5845 109.297 66.55 108.745 66.619 108.158C66.688 107.089 67.3435 106.502 68.3785 106.433C69.3445 106.399 70 106.951 70.2415 107.917C70.345 108.262 70.3105 108.641 70.3105 109.021C70.3105 115.955 70.3105 122.924 70.345 129.859C70.345 130.963 70.069 131.86 69.1375 132.481C68.6545 132.481 68.2405 132.481 67.8265 132.481Z" fill="white"/>
<path d="M42.6424 132.48C41.7109 131.755 41.5384 130.789 41.5384 129.685C41.5729 123.475 41.5384 117.265 41.5729 111.055C41.5729 109.123 41.0209 107.536 39.5719 106.225C38.7094 105.466 37.9159 104.638 37.1224 103.776C36.2599 102.879 36.2254 101.775 36.9499 101.016C37.7089 100.257 38.7784 100.257 39.6754 101.119C40.8139 102.223 41.9869 103.362 43.0564 104.535C44.5399 106.156 45.2299 108.088 45.2299 110.262C45.2299 116.886 45.2644 123.51 45.1954 130.099C45.1954 130.858 44.5054 131.652 44.1259 132.411C43.6429 132.48 43.1254 132.48 42.6424 132.48Z" fill="white"/>
<path d="M37.2258 31.9806C36.6738 33.8091 36.0528 35.9481 34.5348 37.6386C33.5688 38.7081 32.2233 39.0876 30.8088 38.7081C27.9108 37.9146 25.0473 37.1211 22.2183 36.1551C20.0448 35.3961 18.9753 32.9811 19.8033 30.8076C20.4933 29.0136 21.2868 27.2541 22.1148 25.5291C23.1843 23.3901 25.6683 22.5276 27.7728 23.7006C30.3258 25.1151 32.8098 26.5986 35.2938 28.1511C36.6048 28.9101 37.1568 30.1866 37.2258 31.9806ZM25.8063 26.8056C25.6338 27.0471 25.3923 27.2541 25.2543 27.5301C24.6333 28.9101 24.0123 30.2901 23.4258 31.7046C23.1498 32.3256 23.3223 32.6706 24.0123 32.8776C25.7028 33.3606 27.3933 33.9126 29.0838 34.3956C32.0853 35.2926 32.0853 35.2926 33.2928 32.3256C33.5688 31.6701 33.4998 31.2906 32.8788 30.9111C30.7743 29.7036 28.7043 28.4616 26.6343 27.2196C26.3583 27.0816 26.1513 26.9781 25.8063 26.8056Z" fill="white"/>
<path d="M40.8822 28.015C40.1577 27.6355 39.0882 27.325 38.3637 26.635C36.3282 24.6685 34.3962 22.5985 32.4987 20.494C30.8082 18.631 31.0497 15.94 32.9817 14.3875C34.4652 13.2145 35.9832 12.076 37.5357 11.041C39.5712 9.66096 42.1587 10.213 43.4352 12.352C44.9187 14.8015 46.3332 17.32 47.6442 19.8385C48.4722 21.4255 48.3687 23.1505 47.0922 24.3925C45.8502 25.6 44.3322 26.566 42.8487 27.532C42.4347 27.8425 41.7792 27.808 40.8822 28.015ZM44.4702 21.8395C44.3667 21.5635 44.3322 21.391 44.2632 21.253C42.9867 19.0105 41.7447 16.768 40.4682 14.5255C40.1232 13.939 39.7437 13.9735 39.2607 14.353C38.0877 15.25 36.9147 16.1125 35.7072 16.975C35.0172 17.458 35.0517 17.872 35.6037 18.4585C36.8457 19.735 38.0187 21.0115 39.2262 22.288C41.2272 24.427 41.2272 24.427 43.6077 22.633C43.9182 22.357 44.1942 22.081 44.4702 21.8395Z" fill="white"/>
<path d="M27.3586 41.8829C28.7041 41.8829 30.0841 41.8484 31.4296 41.8829C33.6376 41.9519 35.2591 43.2974 35.6386 45.4709C35.8456 46.7129 35.9491 47.9894 36.0181 49.2659C36.0871 51.2324 34.9831 52.8194 33.1201 53.3369C30.2911 54.1304 27.3931 54.8204 24.5296 55.4069C22.1836 55.8899 20.0791 54.3029 19.6996 51.9224C19.4236 50.0594 19.1821 48.1964 19.0441 46.2989C18.8716 43.9184 20.5966 41.9519 22.9771 41.8139C24.4606 41.7449 25.9441 41.8139 27.3931 41.8139C27.3586 41.8484 27.3586 41.8484 27.3586 41.8829ZM27.3586 45.5744C27.3586 45.5399 27.3586 45.5399 27.3586 45.5054C26.1166 45.5054 24.8746 45.4364 23.6671 45.5399C23.3221 45.5744 22.7356 46.0574 22.7701 46.2989C22.8736 47.8859 23.0461 49.5074 23.3221 51.0599C23.3566 51.3014 23.9776 51.7154 24.2191 51.6809C26.7031 51.1634 29.2561 50.7494 31.6366 49.8869C33.2926 49.3004 31.8781 47.7479 32.0506 46.6439C32.1541 45.9884 31.8781 45.5054 31.0846 45.5744C30.9121 45.5744 30.7396 45.5744 30.6016 45.5744C29.4976 45.5744 28.4281 45.5744 27.3586 45.5744Z" fill="white"/>
</svg>
