<svg width="246" height="205" viewBox="0 0 246 205" fill="none" xmlns="http://www.w3.org/2000/svg">
<path d="M125.864 47.0625C128.034 47.4675 130.232 47.6989 132.315 48.2774C146.634 52.1535 156.614 64.1579 158.09 79.1706C158.118 79.3442 158.118 79.5177 158.147 79.6913C160.23 80.5012 160.491 80.9351 160.404 83.1624C160.201 89.0634 158.697 94.6461 155.862 99.8239C155.544 100.402 155.689 100.721 156.007 101.155C160.953 107.489 163.933 114.634 164.714 122.647C165.871 134.391 162.631 144.862 155.139 154.003C153.374 156.172 150.944 157.387 148.225 157.937C147.994 157.994 147.762 158.081 147.531 158.168C131.216 158.168 114.901 158.168 98.5856 158.168C97.8624 157.966 97.1392 157.792 96.416 157.561C94.0729 156.837 92.1347 155.507 90.6016 153.598C78.1338 138.527 77.9891 116.196 90.2255 100.923C90.6883 100.345 90.7751 99.9396 90.3991 99.2164C87.6799 94.0097 86.2624 88.4559 86.2046 82.5839C86.2046 80.9351 86.4649 80.588 87.9691 79.8648C88.2584 79.7202 88.4898 79.1706 88.5477 78.7945C89.0684 73.125 90.833 67.8604 93.9861 63.1165C100.148 53.8602 108.768 48.5377 119.818 47.265C120.108 47.2361 120.368 47.1493 120.657 47.0914C122.393 47.0625 124.129 47.0625 125.864 47.0625ZM103.706 84.2327C99.5112 84.2327 95.0853 84.2327 90.6594 84.2327C90.6594 84.5219 90.6305 84.7244 90.6594 84.9558C91.1222 89.8733 92.5975 94.4725 95.1142 98.7536C95.9531 100.2 95.8953 100.923 94.796 102.167C89.1262 108.733 85.9731 116.341 85.5392 125.019C85.0475 134.622 87.8824 143.184 93.8704 150.705C95.4614 152.701 97.602 153.771 100.148 153.8C115.421 153.829 130.666 153.829 145.94 153.8C148.428 153.8 150.539 152.846 152.102 150.908C158.726 142.75 161.503 133.378 160.433 122.936C159.623 115.213 156.585 108.415 151.552 102.485C150.511 101.27 150.482 100.518 151.292 99.1586C153.288 95.861 154.705 92.3031 155.457 88.5427C155.746 87.1542 155.862 85.7368 156.065 84.2905C151.465 84.2905 147.068 84.2905 142.932 84.2905C142.15 86.5468 141.485 88.7162 140.617 90.7989C139.923 92.4766 138.882 92.8238 137.204 92.1585C127.918 88.4559 118.603 88.398 109.26 91.9849C107.582 92.6213 106.541 92.2742 105.875 90.5964C105.065 88.5138 104.429 86.4021 103.706 84.2327ZM101.739 79.778C101.768 79.5177 101.797 79.3442 101.825 79.1706C103.937 63.7529 121.033 55.3932 134.311 63.3769C140.183 66.9059 143.655 72.1704 144.725 78.9681C144.783 79.2863 145.072 79.778 145.275 79.807C148.081 79.8648 150.887 79.8359 153.693 79.8359C153.114 66.067 141.254 51.6618 123.695 51.4304C105.76 51.1989 93.4364 65.7778 92.8579 79.807C95.8085 79.778 98.7302 79.778 101.739 79.778ZM140.386 79.807C139.923 73.3564 133.935 64.6207 123.232 64.6786C112.615 64.7364 106.656 73.4432 106.251 79.807C107.756 80.0962 108.161 81.1376 108.276 82.555C108.392 84.117 108.739 85.6501 108.999 87.3278C118.632 84.117 128.005 84.1459 137.58 87.5013C137.869 85.7658 138.274 84.2038 138.39 82.6128C138.448 81.2243 138.853 80.2119 140.386 79.807Z" fill="white"/>
<path d="M149.845 127.305C149.787 133.466 148.109 138.76 144.638 143.417C142.757 145.934 140.154 147.235 137.001 147.293C135.583 147.322 134.195 147.322 132.777 147.293C131.389 147.264 130.434 146.368 130.434 145.124C130.434 143.938 131.36 143.012 132.691 142.954C134.05 142.896 135.439 142.925 136.798 142.954C138.708 142.954 140.183 142.173 141.311 140.64C150.828 127.681 143.191 108.648 127.368 105.842C114.495 103.557 102.722 112.292 101.246 125.28C100.61 130.863 101.999 136.041 105.296 140.64C106.396 142.202 107.9 142.983 109.809 142.954C110.821 142.954 111.834 142.925 112.846 142.954C114.351 142.983 115.276 143.822 115.305 145.124C115.305 146.454 114.408 147.322 112.875 147.264C110.908 147.206 108.912 147.206 106.974 146.83C104.862 146.425 103.213 145.095 101.912 143.359C90.225 127.566 99.5976 104.569 118.979 101.474C133.963 99.0732 147.791 109.458 149.642 124.528C149.758 125.541 149.787 126.611 149.845 127.305Z" fill="white"/>
<path d="M131.967 130.544C131.042 130.602 130.203 130.775 129.422 130.689C126.731 130.428 124.851 129.011 123.896 126.465C123 124.036 123.491 121.808 125.227 119.928C127.078 117.932 129.364 117.469 131.967 118.193C132.314 118.279 132.806 118.25 133.153 118.106C134.744 117.469 136.277 118.337 136.277 120.073C136.306 124.527 136.335 128.953 136.248 133.408C136.191 136.098 133.992 138.528 131.36 139.019C128.583 139.54 125.719 138.181 124.562 135.722C123.983 134.536 124.33 133.292 125.372 132.714C126.413 132.135 127.599 132.453 128.264 133.552C128.843 134.507 129.566 135.028 130.665 134.681C131.736 134.333 131.996 133.466 131.967 132.453C131.967 131.817 131.967 131.18 131.967 130.544ZM131.967 124.296C131.967 123.139 131.07 122.242 129.942 122.242C128.814 122.242 127.859 123.139 127.859 124.267C127.831 125.424 128.843 126.408 129.971 126.408C131.07 126.35 131.967 125.453 131.967 124.296Z" fill="white"/>
<path d="M115.248 120.217C116.115 119.523 116.752 118.973 117.446 118.453C118.516 117.643 119.789 117.729 120.541 118.655C121.351 119.61 121.207 120.911 120.165 121.808C119.124 122.705 118.054 123.544 116.781 124.614C118.111 125.887 119.413 127.073 120.657 128.316C121.033 128.692 121.38 129.155 121.525 129.647C121.785 130.602 121.496 131.469 120.628 131.99C119.731 132.54 118.806 132.511 118.025 131.788C117.157 130.949 116.347 130.023 115.334 128.953C115.305 129.589 115.276 129.849 115.248 130.139C115.132 131.469 114.235 132.366 113.02 132.337C111.805 132.308 110.908 131.383 110.908 130.052C110.879 125.134 110.879 120.217 110.908 115.329C110.908 114.027 111.863 113.072 113.049 113.072C114.235 113.072 115.19 113.998 115.219 115.329C115.276 116.833 115.248 118.395 115.248 120.217Z" fill="white"/>
<path d="M123.058 147.293C121.901 147.264 120.918 146.309 120.889 145.152C120.889 143.966 121.93 142.925 123.116 142.954C124.273 142.983 125.228 143.995 125.199 145.152C125.199 146.367 124.215 147.293 123.058 147.293Z" fill="white"/>
</svg>
