<svg width="241" height="201" viewBox="0 0 241 201" fill="none" xmlns="http://www.w3.org/2000/svg">
<path d="M103.61 54.0851C108.002 55.4465 111.431 58.4244 114.945 61.1188C118.063 63.5012 118.63 68.0391 116.617 71.4141C115.399 73.4846 114.039 75.4699 112.65 77.4268C111.035 79.6674 108.711 80.7168 105.99 80.8019C104.658 80.8586 103.326 80.8019 102.023 80.8019C102.646 86.0488 103.468 91.1823 103.865 96.3725C104.261 101.534 104.233 106.725 104.375 111.83C105.31 111.064 106.359 110.128 107.464 109.305C108.541 108.511 109.646 107.746 110.779 107.037C112.111 106.186 113.33 106.384 114.01 107.49C114.719 108.596 114.322 109.844 112.933 110.667C109.363 112.851 106.302 115.573 103.695 118.863C103.355 119.289 103.071 119.714 102.759 120.14C102.108 120.962 101.087 121.303 100.209 120.905C99.2736 120.48 98.7918 119.743 98.9335 118.693C99.1602 116.906 99.4436 115.12 99.642 113.333C100.209 108.001 100.039 102.669 99.6987 97.3368C99.1886 89.6508 97.6866 82.1349 96.2979 74.5907C95.6178 70.9604 97.9983 68.0391 101.682 67.954C102.561 67.9256 103.44 67.9256 104.346 67.954C105.65 68.0391 106.529 68.9183 106.529 70.0811C106.529 71.244 105.622 72.1232 104.29 72.1515C103.525 72.1799 102.731 72.1515 101.966 72.1515C100.691 72.1799 100.294 72.6621 100.492 73.8816C100.634 74.7041 100.804 75.555 101.002 76.6043C103.043 76.5193 105.14 76.576 107.152 76.264C107.974 76.1506 108.852 75.3564 109.391 74.6474C110.638 73.0308 111.715 71.2723 112.82 69.5423C114.095 67.5286 113.642 65.2029 111.715 63.8132C109.448 62.1966 107.124 60.665 104.8 59.0768C103.496 58.1975 102.136 58.0557 100.662 58.6513C96.9498 60.1261 93.2373 61.5726 89.5248 63.019C88.2778 63.5012 87.541 64.4088 87.286 65.7418C83.8852 83.1559 80.4844 100.542 77.0837 117.956C76.8003 119.346 76.4602 120.707 76.1485 122.097C75.5817 124.592 76.5736 126.748 78.8974 127.769C82.6383 129.386 85.7273 131.853 88.3345 134.973C91.5369 138.773 95.7311 141.184 100.265 142.999C110.071 146.97 120.273 148.473 130.787 147.197C136.455 146.516 141.755 144.758 146.119 140.872C147.026 140.078 147.819 139.17 148.613 138.263C149.69 137.072 150.767 136.93 152.042 137.951C154.422 139.908 157.115 141.127 160.175 141.496C161.564 141.666 162.329 142.602 162.188 143.879C162.074 145.041 161.111 145.835 159.779 145.722C156.52 145.41 153.544 144.219 150.738 142.319C150.087 142.914 149.435 143.51 148.755 144.162C151.022 147.707 154.026 150.402 157.483 152.614C161.791 155.337 166.438 157.237 171.37 158.456C172.56 158.74 173.155 159.449 173.212 160.47C173.24 161.463 172.702 162.285 171.738 162.569C171.37 162.682 170.944 162.711 170.604 162.626C161.876 160.47 153.969 156.755 147.819 149.948C146.884 148.899 146.062 147.736 145.155 146.573C142.066 148.416 138.722 149.749 135.208 150.6C129.002 152.075 122.739 152.16 116.447 151.423C109.504 150.6 102.759 148.927 96.4113 145.921C91.7636 143.708 87.5977 140.872 84.3103 136.816C82.4399 134.547 80.0594 132.902 77.3671 131.711C72.9745 129.754 70.9907 125.727 72.0109 121.047C72.4643 118.948 72.9461 116.85 73.3712 114.723C76.5169 98.6131 79.6626 82.4752 82.8366 66.3657C82.9783 65.5716 83.12 64.7491 83.3467 63.9834C84.1119 61.4308 85.869 59.8142 88.3345 58.8782C92.5855 57.2616 96.8081 55.6166 101.059 54C101.909 54.0851 102.759 54.0851 103.61 54.0851Z" fill="white"/>
<path d="M148.159 54.085C149.633 54.4253 151.135 54.709 152.552 55.1627C161.281 57.9706 167.147 66.3089 167.005 75.4982C166.864 84.659 160.742 92.7421 151.929 95.2663C146.062 96.9397 140.451 96.1739 135.18 93.1392C134.585 92.7988 134.075 92.6854 133.395 92.9123C131.751 93.4795 130.107 93.9617 128.463 94.4722C127.557 94.7558 126.706 94.7558 125.998 94.0468C125.261 93.281 125.289 92.4301 125.629 91.4942C126.253 89.8492 126.876 88.1759 127.415 86.5025C127.557 86.0487 127.557 85.3681 127.358 84.9426C120.585 71.8111 128.719 56.1838 143.342 54.2552C143.54 54.2268 143.739 54.1417 143.937 54.0566C145.326 54.085 146.743 54.085 148.159 54.085ZM131.014 89.2253C131.808 88.9984 132.403 88.8849 132.941 88.6297C134.33 88.0057 135.492 88.3177 136.795 89.1118C142.718 92.7421 148.868 93.0257 154.819 89.3387C160.657 85.7084 163.293 80.2062 162.613 73.3143C161.366 60.6649 146.799 54.0566 136.399 61.3456C129.172 66.4224 127.046 76.1505 131.609 83.7514C132.233 84.7725 132.403 85.7368 131.893 86.8429C131.552 87.5236 131.354 88.261 131.014 89.2253Z" fill="white"/>
<path d="M152.864 109.506C154.593 111.945 156.265 114.185 157.795 116.511C158.617 117.759 158.248 119.092 157.143 119.716C156.038 120.311 154.848 119.886 154.139 118.581C150.172 111.491 143.852 107.917 136.115 106.556C134.103 106.216 132.034 106.187 129.994 105.96C128.605 105.819 127.84 104.911 127.953 103.635C128.067 102.443 128.945 101.734 130.334 101.763C137.107 101.848 143.512 103.153 149.321 107.01C150.37 105.989 151.39 104.939 152.524 103.975C157.767 99.5222 163.718 96.9129 170.69 96.9697C172.305 96.9697 173.183 97.7354 173.212 99.0401C173.24 100.401 172.277 101.196 170.661 101.224C163.35 101.196 157.625 104.542 152.864 109.506Z" fill="white"/>
<path d="M122.087 138.775C118.006 138.803 114.095 137.924 110.355 136.279C108.938 135.655 108.399 134.521 108.938 133.329C109.448 132.167 110.61 131.798 111.998 132.365C116.221 134.095 120.585 135.031 125.148 134.265C126.82 133.982 128.435 133.244 130.051 132.705C130.277 132.62 130.476 132.479 130.702 132.365C131.893 131.798 133.083 132.138 133.621 133.159C134.188 134.209 133.848 135.4 132.714 136.052C129.994 137.669 127.018 138.491 123.873 138.718C123.306 138.832 122.682 138.775 122.087 138.775Z" fill="white"/>
<path d="M122.909 104.995C122.937 106.129 122.002 107.065 120.84 107.122C119.706 107.15 118.715 106.243 118.686 105.108C118.658 103.974 119.565 102.981 120.67 102.924C121.832 102.867 122.88 103.86 122.909 104.995Z" fill="white"/>
<path d="M157.341 73.5134C157.313 75.5555 156.576 77.3139 155.074 78.7036C152.58 80.9726 150.058 83.1848 147.536 85.3686C146.544 86.2479 145.467 86.2479 144.475 85.3686C141.925 83.1281 139.346 80.9158 136.852 78.6185C134.245 76.2078 133.876 72.1521 135.945 69.2308C138.014 66.2528 141.925 65.2885 145.155 66.9618C145.75 67.2738 146.147 67.3022 146.771 66.9902C151.645 64.4944 157.37 68.0396 157.341 73.5134ZM146.005 81.086C148.131 79.1858 150.285 77.3706 152.325 75.4137C153.487 74.3075 153.345 72.4357 152.212 71.3012C151.05 70.1384 149.236 70.11 148.018 71.2445C146.289 72.8611 145.694 72.8611 143.993 71.2728C142.775 70.1384 140.961 70.1384 139.799 71.2728C138.581 72.464 138.524 74.3643 139.799 75.5271C141.783 77.4273 143.88 79.2141 146.005 81.086Z" fill="white"/>
</svg>

