<svg width="250" height="209" viewBox="0 0 250 209" fill="none" xmlns="http://www.w3.org/2000/svg">
<path d="M161.865 47.8926C162.306 48.4234 162.864 48.8953 163.188 49.4851C167.009 56.032 169.773 62.9918 170.86 70.5414C171.184 72.7827 171.213 75.0534 171.39 77.4127C171.537 76.9998 171.684 76.6754 171.801 76.3215C173.653 71.1017 178.328 68.7719 183.59 70.4234C185.383 70.9837 187.147 71.6325 188.94 72.1339C189.646 72.3403 190.469 72.3698 191.204 72.2518C193.056 71.9569 194.879 71.5146 196.731 71.1902C198.436 70.8953 199.406 71.9864 198.906 73.6379C198.23 75.8497 197.524 78.0615 196.731 80.2143C195.819 82.662 194.144 84.4904 191.792 85.6406C191.086 85.9945 190.851 86.4073 190.675 87.2036C189.91 90.6835 189.175 94.2223 186.971 97.1419C184.178 100.799 179.445 102.185 175.182 100.74C170.89 99.2947 167.979 95.4315 167.744 90.8604C167.744 90.654 167.715 90.4181 167.656 89.9757C165.628 93.4261 163.687 96.6995 161.63 100.209C164.07 98.7639 166.451 98.2331 169.008 98.8229C175.123 100.209 178.269 107.405 174.77 112.624C171.507 117.52 167.862 122.15 164.393 126.868C164.158 127.193 163.923 127.488 163.629 127.93C163.981 128.166 164.334 128.402 164.687 128.608C167.685 130.437 170.713 132.265 173.712 134.094C176.975 136.07 178.004 138.724 176.975 142.41C174.741 150.431 172.477 158.482 170.214 166.504C169.714 168.303 168.95 168.745 167.186 168.214C164.569 167.448 161.953 166.681 159.307 165.885C157.631 165.383 157.22 164.675 157.69 162.994C159.16 157.716 160.601 152.407 162.1 147.158C162.335 146.362 162.159 145.978 161.453 145.566C156.749 142.705 152.075 139.785 147.372 136.866C144.784 135.273 144.549 135.037 142.815 132.501C138.141 140.906 133.496 149.281 128.792 157.716C130.526 158.777 132.232 159.839 134.025 160.93C134.319 160.576 134.613 160.222 134.877 159.868C139.022 154.442 143.138 149.016 147.283 143.619C147.489 143.354 147.724 143.059 147.959 142.823C148.636 142.145 149.429 142.056 150.194 142.616C150.987 143.206 151.164 144.002 150.693 144.887C150.517 145.182 150.311 145.477 150.076 145.742C145.49 151.759 140.904 157.775 136.318 163.791C135.171 165.295 134.525 165.413 132.937 164.439C130.585 163.024 128.263 161.608 125.94 160.163C124.5 159.279 124.294 158.541 125.147 157.037C131.291 145.978 137.317 134.86 143.667 123.919C145.843 120.145 148.783 116.812 151.37 113.273C151.664 112.89 151.928 112.477 152.34 111.887C150.517 111.681 148.9 111.474 147.283 111.297C143.814 110.914 140.375 110.531 136.906 110.118C133.848 109.734 131.791 107.139 132.143 104.072C132.467 101.153 135.142 98.9998 138.111 99.3242C143.903 99.9435 149.694 100.622 155.485 101.3C156.132 101.389 156.573 101.3 156.926 100.681C159.66 95.9918 162.511 91.3323 165.157 86.5843C166.745 83.7532 167.333 80.5682 167.568 77.3242C167.627 76.6164 167.391 76.292 166.774 75.9971C157.014 71.5146 147.254 67.0025 137.494 62.4904C136.847 62.1955 136.465 62.284 135.965 62.7559C133.76 64.8792 132.055 67.3269 130.673 70.04C130.38 70.6298 129.615 71.2786 128.998 71.3966C127.645 71.662 126.734 70.158 127.44 68.8309C128.527 66.7961 129.645 64.7612 131.085 62.9623C135.524 57.3591 141.492 53.8497 148.077 51.4609C151.928 50.0749 155.956 49.2197 159.895 48.099C160.042 48.0695 160.16 47.981 160.307 47.8926C160.924 47.8926 161.394 47.8926 161.865 47.8926ZM148.636 123.064C148.136 123.713 147.607 124.391 147.136 125.099C144.814 128.402 145.402 131.41 148.871 133.533C154.162 136.807 159.454 140.08 164.716 143.354C166.363 144.386 166.539 144.799 166.01 146.627C164.599 151.67 163.188 156.742 161.806 161.785C161.718 162.11 161.659 162.434 161.6 162.818C163.511 163.378 165.334 163.909 167.215 164.439C169.449 156.477 171.654 148.633 173.83 140.788C174.241 139.284 173.712 138.104 172.33 137.279C164.54 132.531 156.749 127.842 148.959 123.123C148.871 123.094 148.783 123.094 148.636 123.064ZM139.993 59.6593C149.224 63.9355 158.308 68.1231 167.538 72.3993C167.48 71.8095 167.48 71.3671 167.421 70.9542C166.421 64.2894 163.981 58.1258 160.777 52.2572C160.454 51.6674 160.13 51.6084 159.572 51.7559C156.161 52.7585 152.722 53.6138 149.371 54.7639C146.078 55.914 143.021 57.536 139.993 59.6593ZM160.63 126.072C161.1 125.453 161.541 124.863 161.982 124.273C165.157 119.997 168.332 115.721 171.448 111.415C173.124 109.115 173.124 106.461 171.566 104.338C170.272 102.598 167.774 101.654 166.186 102.332C166.304 102.391 166.421 102.45 166.51 102.48C169.273 102.716 171.713 105.37 171.243 108.673C170.802 111.74 168.097 113.598 164.804 113.214C162.364 112.919 159.924 112.654 157.455 112.418C157.073 112.389 156.455 112.536 156.25 112.801C154.427 115.19 152.663 117.608 150.811 120.115C154.104 122.12 157.337 124.067 160.63 126.072ZM175.3 84.1365C177.416 81.4529 180.033 80.981 183.061 82.2197C183.884 82.5441 184.766 82.8095 185.618 83.0159C188.117 83.6057 190.234 82.8979 192.027 81.099C193.614 79.5065 193.938 77.3242 194.702 75.1714C193.938 75.3189 193.32 75.3778 192.733 75.5548C190.822 76.0856 188.999 76.0266 187.118 75.2894C185.53 74.6406 183.884 74.1687 182.237 73.6674C179.503 72.8416 176.74 73.8443 175.682 76.292C174.682 78.5628 174.006 80.981 173.153 83.4288C173.947 83.6942 174.565 83.9006 175.3 84.1365ZM172.066 86.8202C171.831 87.6459 171.625 88.3537 171.478 89.0615C170.772 92.4824 172.566 95.7558 175.829 97.1419C178.974 98.469 182.825 97.4958 184.472 94.5172C185.765 92.158 186.471 89.5038 187.382 87.1151C185.089 86.4663 183.119 85.906 181.15 85.3162C179.592 84.8443 178.71 85.2277 178.034 86.7317C177.446 87.9998 176.769 88.3242 175.417 87.9114C174.329 87.5575 173.271 87.2036 172.066 86.8202ZM142.521 107.051C142.815 107.139 142.903 107.169 143.021 107.198C148.489 107.818 153.957 108.437 159.425 109.056C161.453 109.292 163.452 109.528 165.481 109.734C166.657 109.852 167.568 109.174 167.744 108.142C167.921 107.11 167.274 106.255 166.069 105.989C165.716 105.901 165.363 105.871 165.04 105.842C159.572 105.222 154.104 104.603 148.636 104.013C146.784 103.807 144.931 103.63 143.021 103.423C142.815 104.692 142.668 105.842 142.521 107.051ZM138.993 106.726C139.169 105.429 139.316 104.249 139.463 103.04C138.258 102.804 137.053 102.362 136.259 103.482C135.906 103.954 135.789 104.868 135.995 105.429C136.465 106.726 137.729 106.638 138.993 106.726Z" fill="white"/>
<path d="M123.324 121.914C124.059 119.466 124.735 117.136 125.47 114.806C126.293 112.152 128.968 110.56 131.585 111.091C134.377 111.651 136.318 114.099 136.024 116.871C135.936 117.755 135.553 118.699 135.112 119.495C133.966 121.442 132.672 123.329 131.438 125.246C131.408 125.305 131.379 125.393 131.32 125.6C132.731 126.278 134.172 126.927 135.612 127.605C135.936 127.753 136.259 127.871 136.582 128.048C137.641 128.608 138.052 129.522 137.641 130.466C137.229 131.38 136.23 131.734 135.142 131.262C133.231 130.407 131.32 129.522 129.292 128.578C127.998 130.584 126.734 132.56 125.44 134.506C124.323 136.187 122.648 136.57 121.237 135.479C120.178 134.683 119.914 133.592 120.266 132.324C120.854 130.289 121.413 128.254 122.06 126.249C122.295 125.511 122.119 125.217 121.472 124.922C119.972 124.273 118.473 123.565 117.003 122.887C115.445 122.179 115.239 121.855 115.416 120.174C116.239 111.385 117.709 102.686 119.796 94.1334C121.237 88.2943 122.971 82.5141 124.588 76.7045C124.676 76.3801 124.794 76.0262 124.941 75.7018C125.382 74.7286 126.234 74.3452 127.146 74.6696C128.057 74.994 128.527 75.8492 128.233 76.8519C127.469 79.4176 126.646 81.9243 125.911 84.49C122.677 95.8439 120.384 107.404 119.091 119.141C119.061 119.466 119.355 120.026 119.649 120.174C120.737 120.793 121.972 121.294 123.324 121.914ZM125.235 127.9C125.294 127.93 125.352 127.959 125.411 127.989C127.704 124.45 129.997 120.911 132.261 117.343C132.878 116.369 132.378 115.19 131.32 114.718C130.321 114.305 129.203 114.747 128.821 115.809C128.468 116.812 128.204 117.844 127.91 118.847C127.028 121.855 126.146 124.892 125.235 127.9Z" fill="white"/>
<path d="M154.868 82.1899C154.927 86.7904 151.105 90.7126 146.519 90.7421C141.639 90.7716 137.817 86.9084 137.817 82.0424C137.817 77.4419 141.757 73.6081 146.46 73.6081C151.046 73.5491 154.809 77.4124 154.868 82.1899ZM151.37 82.1899C151.37 79.3588 149.136 77.1175 146.343 77.088C143.668 77.088 141.345 79.4177 141.345 82.1309C141.345 84.9325 143.609 87.2328 146.402 87.2033C149.136 87.1738 151.37 84.962 151.37 82.1899Z" fill="white"/>
<path d="M113.065 164.409C110.331 164.409 107.597 164.409 104.863 164.409C103.951 164.409 103.128 164.203 102.746 163.259C102.276 162.079 103.099 160.929 104.51 160.9C106.862 160.87 109.214 160.9 111.536 160.9C114.858 160.9 118.18 160.87 121.502 160.9C123.06 160.9 123.971 162.079 123.413 163.348C123.031 164.232 122.266 164.439 121.384 164.439C118.621 164.409 115.828 164.409 113.065 164.409Z" fill="white"/>
<path d="M115.769 150.756C117.68 150.756 119.591 150.756 121.502 150.756C122.795 150.756 123.589 151.434 123.589 152.466C123.618 153.498 122.825 154.265 121.561 154.265C117.651 154.295 113.77 154.295 109.86 154.265C108.567 154.265 107.832 153.557 107.861 152.466C107.861 151.405 108.596 150.756 109.919 150.756C111.859 150.756 113.8 150.756 115.769 150.756Z" fill="white"/>
<path d="M119.238 140.641C120.061 140.641 120.884 140.612 121.678 140.641C122.795 140.671 123.53 141.349 123.559 142.322C123.589 143.207 122.912 144.062 121.913 144.121C120.12 144.21 118.326 144.21 116.533 144.121C115.533 144.062 114.887 143.413 114.887 142.322C114.887 141.349 115.622 140.7 116.739 140.641C116.827 140.641 116.886 140.641 116.974 140.641C117.768 140.612 118.503 140.612 119.238 140.641Z" fill="white"/>
</svg>
