<svg width="206" height="172" viewBox="0 0 206 172" fill="none" xmlns="http://www.w3.org/2000/svg">
<path d="M47.2852 91.0351C48.1088 88.414 49.4411 86.2054 52.2511 85.4288C53.7045 85.0405 55.2548 84.9919 56.9505 84.7735C56.9505 84.5065 56.9505 84.0697 56.9505 83.6571C56.9505 80.5506 56.9021 77.444 56.9505 74.3375C57.0716 66.6682 64.4357 62.2026 71.2911 65.6246C71.3637 65.6489 71.4364 65.6975 71.5818 65.746C71.6786 65.5518 71.824 65.382 71.8967 65.1878C73.6166 60.3096 77.8315 57.737 82.8216 58.5379C87.3757 59.266 90.7186 63.2947 90.7429 68.2701C90.7913 73.391 90.7429 78.5119 90.7429 83.6571C90.7429 84.0454 90.7429 84.458 90.7429 84.9191C103 84.9191 115.185 84.9191 127.491 84.9191C127.491 84.458 127.491 84.0211 127.491 83.5843C127.491 78.4876 127.442 73.4153 127.491 68.3186C127.563 61.4745 133.595 56.8875 140.014 58.8291C142.97 59.7271 144.98 61.6929 146.143 64.5811C146.288 64.9451 146.409 65.3334 146.603 65.8188C148.42 64.8723 150.261 64.2898 152.272 64.4597C157.625 64.9694 161.259 68.9496 161.331 74.4346C161.356 77.9052 161.331 81.3757 161.331 85.0162C162.082 85.0162 162.809 85.0162 163.511 85.0162C167.896 85.089 170.948 88.147 170.997 92.5156C171.045 95.5493 171.021 98.583 170.997 101.592C170.948 106.131 167.896 109.165 163.39 109.213C162.76 109.213 162.106 109.213 161.331 109.213C161.331 110.864 161.356 112.417 161.331 113.97C161.307 116.397 161.477 118.824 161.186 121.227C160.362 128.071 153.313 131.76 147.16 128.653C147.015 128.58 146.87 128.532 146.87 128.532C145.949 130.012 145.222 131.638 144.06 132.852C141.129 135.91 137.495 136.614 133.522 135.133C129.913 133.774 127.539 130.182 127.491 126.032C127.442 120.911 127.466 115.79 127.466 110.645C127.466 110.208 127.466 109.771 127.466 109.286C115.185 109.286 103.049 109.286 90.7186 109.286C90.7186 109.723 90.7186 110.135 90.7186 110.572C90.7186 115.693 90.7671 120.838 90.6944 125.959C90.6217 132.803 84.5415 137.366 78.1222 135.4C75.1669 134.502 73.1563 132.512 72.0178 129.624C71.8724 129.26 71.7271 128.896 71.5575 128.435C69.1594 129.794 66.6885 130.207 64.0723 129.478C59.6394 128.241 56.9021 124.6 56.8536 119.892C56.8052 116.785 56.8536 113.679 56.8536 110.572C56.8536 110.184 56.8536 109.771 56.8536 109.237C56.1754 109.237 55.594 109.237 54.9884 109.237C51.0399 109.213 48.5691 107.369 47.3821 103.607C47.3336 103.461 47.2367 103.316 47.1641 103.194C47.2852 99.0927 47.2852 95.0639 47.2852 91.0351ZM76.3054 97.0783C76.3054 105.184 76.3054 113.315 76.3054 121.421C76.3054 123.047 76.257 124.649 76.3296 126.275C76.475 129.648 79.7452 131.833 82.8459 130.692C84.9049 129.94 85.995 128.119 85.995 125.498C85.995 106.568 85.995 87.6373 85.995 68.7069C85.995 68.3429 85.995 67.9788 85.9707 67.6148C85.6558 64.4354 82.5309 62.421 79.5272 63.4889C77.5166 64.1927 76.3296 66.0372 76.3296 68.537C76.2812 78.0265 76.3054 87.5645 76.3054 97.0783ZM132.384 97.0783C132.384 105.112 132.384 113.145 132.384 121.178C132.384 122.877 132.335 124.576 132.408 126.275C132.529 129.6 135.678 131.784 138.803 130.74C140.911 130.037 142.073 128.168 142.073 125.498C142.073 106.568 142.073 87.6373 142.073 68.7069C142.073 68.3429 142.073 67.9788 142.049 67.6148C141.734 64.3869 138.488 62.3725 135.509 63.5132C133.522 64.2655 132.408 66.0372 132.408 68.5128C132.384 78.0265 132.384 87.5645 132.384 97.0783ZM61.7953 97.0298C61.7953 99.8208 61.7953 102.612 61.7953 105.379C61.7953 110.233 61.7711 115.062 61.7953 119.916C61.8195 123.46 65.0413 125.789 68.2631 124.649C70.2979 123.921 71.4606 122.1 71.4606 119.601C71.4606 104.578 71.4606 89.5789 71.4606 74.5559C71.4606 74.2404 71.4606 73.9007 71.4364 73.5851C71.073 70.3087 67.7059 68.3186 64.7264 69.6534C62.6674 70.5757 61.7953 72.2746 61.7953 74.5074C61.7953 82.0068 61.7953 89.5304 61.7953 97.0298ZM156.559 97.1996C156.559 92.8068 156.559 88.3897 156.559 83.9969C156.559 80.6962 156.608 77.3712 156.535 74.0705C156.462 70.6242 153.168 68.3671 150.019 69.5564C148.008 70.3087 146.894 72.1047 146.87 74.653C146.87 88.8994 146.87 103.146 146.87 117.392C146.87 118.363 146.845 119.334 146.894 120.304C146.991 122.392 148.347 124.115 150.261 124.722C153.483 125.717 156.511 123.387 156.535 119.868C156.583 112.295 156.559 104.748 156.559 97.1996ZM127.491 99.5053C122.089 99.5053 116.808 99.5053 111.527 99.5053C110.97 99.5053 110.388 99.481 109.856 99.3111C108.814 98.9956 108.257 98.1947 108.233 97.1268C108.208 96.0104 108.79 95.1852 109.856 94.8455C110.34 94.6999 110.873 94.6756 111.406 94.6756C116.323 94.6513 121.241 94.6756 126.134 94.6756C126.57 94.6756 126.982 94.6756 127.418 94.6756C127.418 92.9767 127.418 91.4477 127.418 89.9187C115.161 89.9187 102.976 89.9187 90.8397 89.9187C90.8397 94.7727 90.8397 99.5053 90.8397 104.262C103.073 104.262 115.257 104.262 127.466 104.262C127.491 102.66 127.491 101.156 127.491 99.5053ZM56.8778 104.262C56.8778 99.4325 56.8778 94.6513 56.8778 89.8216C56.2722 89.8216 55.7635 89.8216 55.2548 89.8216C52.9778 89.8459 52.13 90.6711 52.13 92.9767C52.13 95.3551 52.13 97.7336 52.13 100.112C52.13 103.898 52.7598 104.505 56.5872 104.335C56.6356 104.335 56.7083 104.311 56.8778 104.262ZM161.428 104.335C162.3 104.335 163.051 104.383 163.802 104.335C165.207 104.238 166.152 103.34 166.176 101.932C166.225 98.7044 166.225 95.5008 166.176 92.2729C166.152 90.8652 165.207 89.9673 163.826 89.8459C163.051 89.7731 162.252 89.8459 161.428 89.8459C161.428 94.6999 161.428 99.4325 161.428 104.335Z" fill="white"/>
<path d="M103.363 97.0546C103.387 98.3166 102.273 99.4573 100.989 99.4816C99.7295 99.5058 98.5668 98.3894 98.5668 97.1031C98.5426 95.8411 99.6569 94.7004 100.941 94.6762C102.176 94.6519 103.339 95.7926 103.363 97.0546Z" fill="white"/>
</svg>
