<svg width="248" height="207" viewBox="0 0 248 207" fill="none" xmlns="http://www.w3.org/2000/svg">
<path d="M177.806 51.4941C179.176 51.7862 180.605 51.9907 181.947 52.3704C188.858 54.3274 193.933 58.5918 197.199 64.9884C197.345 65.2805 197.432 65.6894 197.665 65.8355C199.036 66.5949 199.036 67.8216 199.007 69.136C198.978 71.4727 199.007 73.8094 199.007 76.1168C199.007 78.5119 198.54 79.0377 196.003 79.3298C196.003 80.4981 196.032 81.6664 196.003 82.864C195.974 83.3897 195.945 83.9739 195.741 84.4412C195.303 85.3759 194.487 85.7556 193.466 85.5804C192.416 85.4051 191.745 84.7041 191.716 83.6526C191.658 82.2506 191.687 80.8194 191.687 79.3298C179.614 79.3298 167.686 79.3298 155.729 79.3298C155.7 79.4466 155.613 79.5342 155.613 79.6218C155.642 83.2729 155.496 86.9239 155.788 90.5458C156.4 98.9286 164.041 106.172 172.41 106.61C178.214 106.902 183.084 104.916 187.021 100.623C187.138 100.477 187.254 100.36 187.4 100.214C188.362 99.2791 189.646 99.2207 190.521 100.068C191.366 100.886 191.483 102.2 190.608 103.105C189.529 104.274 188.333 105.354 187.138 106.406C186.642 106.844 186.409 107.195 186.554 107.866C187.021 110.174 187.488 112.511 187.896 114.847C188.042 115.665 188.625 115.665 189.15 115.782C195.449 117.242 201.777 118.527 208.018 120.222C216.271 122.441 221.521 127.757 223.329 136.257C223.562 137.425 223.62 138.652 223.649 139.85C223.679 146.772 223.679 153.694 223.649 160.617C223.649 162.749 222.92 163.479 220.733 163.479C189.675 163.479 158.616 163.479 127.529 163.479C125.313 163.479 124.584 162.778 124.584 160.529C124.584 153.753 124.671 146.976 124.554 140.2C124.35 129.393 132.866 121.536 141.031 119.754C146.981 118.44 152.93 117.096 158.908 115.782C159.579 115.636 159.958 115.402 160.075 114.643C160.395 112.452 160.833 110.261 161.154 108.071C161.212 107.691 160.949 107.078 160.629 106.844C154.359 102.112 151.238 95.8033 151.238 87.9462C151.238 85.113 151.238 82.2798 151.238 79.359C150.83 79.3298 150.48 79.3298 150.13 79.2421C149.109 79.0085 148.322 78.4535 148.322 77.3436C148.264 74.1014 147.855 70.7717 148.468 67.6464C148.934 65.3389 150.538 63.0899 152.055 61.1621C154.417 58.1537 157.771 56.6348 161.562 56.1383C161.999 56.0799 162.495 55.9046 162.816 55.6417C165.411 53.5387 168.357 52.1951 171.681 51.6986C171.856 51.6694 172.002 51.5818 172.177 51.5233C174.014 51.4941 175.91 51.4941 177.806 51.4941ZM208.222 149.576C211.897 148.262 215.338 147.006 218.75 145.72C218.983 145.633 219.217 145.107 219.217 144.786C219.275 143.063 219.246 141.368 219.246 139.645C219.187 132.635 214.346 126.297 207.552 124.515C204.11 123.61 200.611 122.909 197.17 122.062C196.557 121.916 196.266 122.091 195.945 122.587C195.391 123.522 194.778 124.428 194.137 125.333C186.234 136.607 170.165 139.149 159.112 130.883C156.108 128.634 153.863 125.771 151.967 122.587C151.617 122.003 151.267 121.857 150.568 122.032C147.71 122.733 144.793 123.23 141.965 123.989C135.345 125.742 130.824 129.802 129.308 136.578C128.725 139.149 129.045 141.953 128.9 144.64C128.87 145.341 129.104 145.662 129.775 145.896C132.574 146.889 135.374 147.911 138.173 148.933C138.698 149.138 139.252 149.284 139.923 149.518C139.923 148.846 139.923 148.349 139.923 147.853C139.923 146.421 139.894 145.019 139.981 143.588C140.04 142.566 140.856 141.836 141.819 141.748C142.869 141.631 143.831 142.186 144.123 143.179C144.268 143.647 144.268 144.202 144.268 144.698C144.268 149.021 144.268 153.373 144.268 157.696C144.268 158.105 144.268 158.543 144.268 158.981C164.187 158.981 183.959 158.981 203.848 158.981C203.848 158.485 203.848 158.046 203.848 157.638C203.848 153.402 203.848 149.196 203.848 144.961C203.848 144.611 203.848 144.231 203.877 143.88C203.994 142.566 204.839 141.748 206.064 141.748C207.26 141.748 208.164 142.595 208.193 143.91C208.251 145.72 208.222 147.531 208.222 149.576ZM154.009 65.6602C166.957 65.6602 179.701 65.6602 192.649 65.6602C192.008 64.7548 191.512 63.9661 190.9 63.2359C186.496 57.9492 180.78 55.6125 173.956 55.8754C170.69 55.9922 167.744 57.0437 165.324 59.2344C164.449 60.0522 163.516 60.4027 162.32 60.4903C158.762 60.724 156.05 62.5057 154.009 65.6602ZM194.603 70.1875C180.547 70.1875 166.607 70.1875 152.696 70.1875C152.696 71.794 152.696 73.2836 152.696 74.7732C166.724 74.7732 180.664 74.7732 194.603 74.7732C194.603 73.196 194.603 71.7064 194.603 70.1875ZM165.353 109.414C164.916 111.868 164.507 114.263 164.099 116.658C164.07 116.892 164.274 117.184 164.42 117.418C168.765 123.902 178.914 124.019 183.346 117.593C183.551 117.301 183.755 116.921 183.726 116.629C183.288 114.175 182.822 111.722 182.326 109.239C176.668 111.547 171.069 111.605 165.353 109.414ZM156.021 120.864C160.162 127.728 166.082 131.379 173.927 131.35C181.801 131.35 187.692 127.699 191.833 120.893C190.462 120.572 189.237 120.28 188.013 119.959C187.4 119.783 187.05 119.959 186.642 120.484C185.971 121.331 185.242 122.178 184.426 122.879C177.485 128.867 167.074 127.816 161.329 120.63C161.066 120.309 160.6 119.9 160.279 119.959C158.908 120.163 157.537 120.514 156.021 120.864ZM139.923 159.01C139.923 157.667 139.894 156.382 139.923 155.096C139.952 154.454 139.719 154.132 139.107 153.928C136.744 153.11 134.411 152.263 132.049 151.416C131.029 151.066 130.037 150.686 128.958 150.306C128.958 153.315 128.958 156.148 128.958 159.04C132.632 159.01 136.219 159.01 139.923 159.01ZM219.158 159.04C219.158 156.089 219.158 153.256 219.158 150.306C215.6 151.591 212.159 152.818 208.718 154.074C208.514 154.162 208.251 154.483 208.251 154.687C208.222 156.119 208.222 157.579 208.222 159.04C211.955 159.04 215.513 159.04 219.158 159.04Z" fill="white"/>
<path d="M174.481 91.2472C175.122 91.2765 175.647 91.2473 176.143 91.3349C177.251 91.5101 178.039 92.474 178.009 93.5547C177.98 94.6938 177.105 95.5993 175.91 95.6285C174.743 95.6577 173.577 95.6869 172.41 95.6285C170.544 95.5409 169.261 93.9052 169.727 92.0651C170.252 90.0497 170.864 88.0927 171.535 86.1066C171.914 84.9674 173.081 84.4417 174.16 84.763C175.268 85.0843 175.88 86.1066 175.647 87.3333C175.531 87.9759 175.297 88.5893 175.122 89.2319C174.918 89.8745 174.714 90.517 174.481 91.2472Z" fill="white"/>
<path d="M195.507 92.9115C195.536 94.1383 194.603 95.1021 193.437 95.1021C192.212 95.1314 191.162 94.1091 191.191 92.9115C191.191 91.7432 192.183 90.7793 193.378 90.7793C194.545 90.8085 195.478 91.714 195.507 92.9115Z" fill="white"/>
</svg>
