<svg width="271" height="226" viewBox="0 0 271 226" fill="none" xmlns="http://www.w3.org/2000/svg">
<path d="M152.836 175.901C150.605 175.582 148.343 175.359 146.144 174.976C122.371 170.99 102.613 152.398 97.2595 129.024C91.141 102.364 102.358 75.9277 125.908 62.0239C136.679 55.6779 148.375 52.9992 160.867 53.8284C171.765 54.5618 181.74 58.0378 190.822 64.0967C191.651 64.6389 192.511 65.2766 192.352 66.329C192.256 67.0943 191.746 67.9554 191.173 68.4656C190.376 69.1353 189.42 68.8164 188.496 68.338C185.213 66.4884 182.027 64.3519 178.553 62.9806C157.298 54.6256 137.604 57.6232 119.949 72.1648C110.006 80.3603 103.76 91.0433 101.466 103.735C97.6738 124.814 103.729 142.736 119.567 157.182C127.024 163.974 135.819 168.311 145.73 170.097C165.328 173.573 182.505 168.503 196.622 154.376C208.094 142.895 213.384 128.705 212.842 112.473C212.492 102.173 209.369 92.6377 203.728 83.9957C203.505 83.6768 203.282 83.326 203.059 83.0071C202.103 81.5083 202.231 80.169 203.442 79.3399C204.621 78.5426 206.055 78.8934 206.979 80.3284C208.317 82.4331 209.688 84.5697 210.835 86.7701C214.659 94.1365 216.89 101.949 217.463 110.241C217.495 110.591 217.591 110.942 217.654 111.293C217.654 113.685 217.654 116.076 217.654 118.468C217.591 118.819 217.495 119.17 217.463 119.52C217.017 125.675 215.742 131.638 213.352 137.315C204.589 158.043 189.229 170.735 167.113 175.072C164.914 175.518 162.651 175.71 160.421 175.997C157.935 175.901 155.386 175.901 152.836 175.901Z" fill="white"/>
<path d="M156.692 163.402C130.338 163.498 108.126 141.271 108.063 114.803C107.999 88.3983 130.083 66.299 156.628 66.1395C183.142 65.9801 205.194 87.9519 205.226 114.611C205.29 141.143 183.206 163.306 156.692 163.402ZM175.462 154.314C175.112 154.059 174.825 153.835 174.538 153.612C170.045 149.977 169.885 143.248 174.347 139.549C176.928 137.412 179.286 135.084 181.421 132.469C183.429 129.982 186.17 128.962 189.388 129.312C192.32 129.599 194.487 131.13 196.24 133.681C201.88 121.021 201.88 108.584 196.24 95.9561C195.953 96.3069 195.793 96.5301 195.602 96.7533C191.938 101.473 185.214 101.537 181.294 97.0722C179.159 94.6486 176.769 92.3845 174.41 90.1522C172.467 88.3027 171.256 86.198 171.16 83.4874C171.033 79.9476 172.594 77.3008 175.558 75.228C162.938 69.5836 150.51 69.5517 137.89 75.1642C138.273 75.4512 138.464 75.6426 138.687 75.802C143.308 79.4055 143.563 86.1661 139.101 89.929C136.456 92.1294 134.066 94.5211 131.868 97.1679C128.107 101.664 121.319 101.409 117.75 96.7852C117.559 96.562 117.368 96.3388 117.177 96.0837C111.536 105.906 111.6 126.347 117.272 133.458C117.432 133.267 117.559 133.075 117.718 132.884C121.351 128.164 128.203 127.909 131.995 132.533C134.13 135.116 136.488 137.444 139.07 139.613C141.683 141.781 142.702 144.651 142.193 148.031C141.778 150.742 140.312 152.783 138.05 154.314C148.088 159.575 163.161 160.436 175.462 154.314ZM133.015 151.029C134.927 150.838 136.552 149.753 137.189 148.095C137.859 146.405 137.476 144.46 136.042 143.312C133.11 140.984 130.497 138.337 128.139 135.403C126.705 133.586 123.996 133.458 122.244 134.893C120.395 136.392 120.077 138.911 121.511 140.856C124.06 144.332 127.087 147.362 130.593 149.913C131.294 150.455 132.218 150.678 133.015 151.029ZM120.427 91.1089C120.65 92.9904 121.766 94.6486 123.423 95.2545C125.112 95.8923 126.992 95.4459 128.203 94.0746C128.904 93.3093 129.446 92.4164 130.179 91.6829C132.059 89.8652 134.003 88.1113 135.947 86.3574C137.795 84.6992 138.05 82.1161 136.552 80.2665C135.086 78.4488 132.537 78.1618 130.561 79.5969C127.119 82.148 124.092 85.1137 121.606 88.5897C121.065 89.3231 120.81 90.2798 120.427 91.1089ZM192.862 91.077C192.511 90.2479 192.256 89.355 191.746 88.6534C189.229 85.1775 186.233 82.1799 182.792 79.6606C180.816 78.2256 178.33 78.5445 176.832 80.3941C175.43 82.1161 175.558 84.8586 177.342 86.3255C180.242 88.6534 182.855 91.2365 185.15 94.1703C186.297 95.6053 188.241 95.9561 189.93 95.3183C191.587 94.6167 192.702 92.9585 192.862 91.077ZM175.908 146.437C175.94 148.191 176.705 149.498 178.266 150.296C179.828 151.093 181.326 150.997 182.76 149.945C186.17 147.426 189.133 144.46 191.683 141.048C193.244 138.975 192.957 136.424 191.045 134.893C189.165 133.394 186.456 133.713 184.895 135.722C182.76 138.465 180.338 140.92 177.565 143.025C176.45 143.886 175.908 145.034 175.908 146.437Z" fill="white"/>
<path d="M198.151 75.6096C196.845 75.6096 195.793 74.5573 195.793 73.2817C195.793 71.9423 196.908 70.8262 198.215 70.8581C199.49 70.89 200.541 71.9742 200.541 73.2498C200.509 74.5573 199.426 75.6096 198.151 75.6096Z" fill="white"/>
<path d="M175.876 114.739C175.908 125.358 167.272 134.032 156.66 134C146.048 133.968 137.508 125.421 137.476 114.802C137.444 104.183 146.08 95.5092 156.692 95.5411C167.272 95.573 175.812 104.087 175.876 114.739ZM156.692 129.216C164.69 129.184 171.064 122.775 171.096 114.802C171.128 106.798 164.627 100.293 156.628 100.325C148.597 100.356 142.128 106.894 142.224 114.866C142.32 122.87 148.725 129.248 156.692 129.216Z" fill="white"/>
<path d="M165.742 114.802C165.742 119.84 161.663 123.858 156.596 123.858C151.625 123.826 147.609 119.808 147.609 114.802C147.609 109.731 151.625 105.681 156.692 105.713C161.695 105.681 165.742 109.763 165.742 114.802ZM160.962 114.802C160.994 112.41 159.082 110.465 156.692 110.465C154.302 110.433 152.389 112.346 152.358 114.738C152.326 117.129 154.238 119.075 156.628 119.075C159.018 119.107 160.93 117.193 160.962 114.802Z" fill="white"/>
</svg>

