<svg width="226" height="189" viewBox="0 0 226 189" fill="none" xmlns="http://www.w3.org/2000/svg">
<path d="M136.121 160.278C130.806 160.278 125.517 160.278 120.202 160.278C119.378 159.772 118.926 158.998 118.687 158.065C118.475 157.265 118.182 156.491 117.917 155.718C117.491 156.465 117.226 157.185 117.04 157.905C116.774 158.891 116.402 159.772 115.445 160.278C110.21 160.278 104.974 160.278 99.7388 160.278C98.5695 159.718 98.1974 158.785 98.3569 157.505C98.8884 153.371 99.3667 149.264 99.8451 145.13C100.191 142.197 100.722 139.263 100.775 136.303C100.908 129.823 100.828 123.316 100.802 116.835C100.802 116.328 100.563 115.742 100.217 115.342C96.1511 110.701 92.0584 106.061 87.9392 101.474C87.3013 100.754 87.0356 99.9806 87.0356 99.0472C86.9293 93.3935 87.7 87.8198 88.3112 82.246C88.4441 81.0193 88.577 79.7659 88.6833 78.5391C86.5307 78.5391 84.5375 78.5391 82.4646 78.5391C82.4646 79.0458 82.4646 79.4725 82.4646 79.8992C82.4646 105.634 82.4646 131.343 82.4646 157.078C82.4646 157.478 82.4911 157.878 82.438 158.278C82.3583 159.238 81.6673 159.958 80.7371 160.092C79.8336 160.225 78.93 159.691 78.6642 158.758C78.5048 158.251 78.5048 157.718 78.5048 157.185C78.5048 131.396 78.5048 105.608 78.5048 79.8192C78.5048 79.3925 78.5048 78.9925 78.5048 78.5658C76.9102 78.5658 75.422 78.5658 73.9072 78.5658C73.9072 79.0458 73.9072 79.4458 73.9072 79.8459C73.9072 105.608 73.9072 131.369 73.9072 157.105C73.9072 157.478 73.9072 157.825 73.9072 158.198C73.8275 159.211 73.1365 159.958 72.1798 160.092C71.2496 160.198 70.346 159.612 70.0803 158.651C69.9474 158.171 69.9474 157.665 69.9474 157.185C69.9474 131.396 69.9474 105.608 69.9474 79.8192C69.9474 79.3925 69.9474 78.9925 69.9474 78.5924C67.2367 78.2991 66.9443 77.9791 66.9443 75.3389C66.9443 72.912 66.9443 70.4852 66.9443 68.0584C66.9443 66.1916 67.6353 65.5249 69.4425 65.5249C75.5814 65.5249 81.7204 65.5249 87.8329 65.5249C88.1783 65.5249 88.5504 65.5249 88.9756 65.5249C88.9225 63.7114 89.0288 62.0313 90.1184 60.5912C91.2346 59.1244 92.6696 58.2977 94.5034 58.1643C95.9119 58.0577 97.1875 58.431 98.3303 59.2577C100.43 60.8045 100.988 63.018 100.855 65.4715C112.256 65.4715 123.524 65.4715 134.845 65.4715C134.845 63.7114 134.898 62.0313 136.015 60.5912C137.131 59.1511 138.593 58.2977 140.4 58.1643C141.782 58.0577 143.031 58.431 144.147 59.2311C146.326 60.7779 146.884 63.018 146.751 65.5515C147.256 65.5515 147.628 65.5515 147.974 65.5515C154.006 65.5515 160.039 65.5782 166.072 65.5249C167.294 65.5249 168.198 65.8715 168.783 66.9383C168.783 70.3252 168.783 73.7388 168.783 77.1257C168.224 78.4058 167.108 78.6991 165.779 78.5391C165.779 79.1258 165.779 79.5525 165.779 79.9792C165.779 105.741 165.779 131.503 165.779 157.238C165.779 157.691 165.806 158.171 165.7 158.625C165.487 159.611 164.61 160.225 163.653 160.172C162.644 160.118 161.899 159.345 161.82 158.278C161.793 157.905 161.793 157.558 161.793 157.185C161.793 131.423 161.793 105.661 161.793 79.9259C161.793 79.4992 161.793 79.0725 161.793 78.6191C160.199 78.6191 158.737 78.6191 157.196 78.6191C157.196 79.1258 157.196 79.5525 157.196 79.9792C157.196 105.741 157.196 131.503 157.196 157.238C157.196 157.745 157.196 158.251 157.063 158.731C156.823 159.665 155.973 160.225 155.043 160.172C154.086 160.092 153.315 159.371 153.236 158.358C153.209 157.958 153.209 157.558 153.209 157.158C153.209 131.396 153.209 105.634 153.209 79.8992C153.209 79.4725 153.209 79.0725 153.209 78.5924C151.083 78.5924 149.063 78.5924 146.964 78.5924C147.097 79.8992 147.23 81.1526 147.363 82.406C147.974 87.9264 148.718 93.4202 148.638 99.0205C148.612 100.034 148.372 100.861 147.681 101.634C143.615 106.194 139.576 110.781 135.483 115.342C135.005 115.875 134.819 116.408 134.819 117.128C134.845 121.689 134.819 126.249 134.845 130.809C134.845 132.916 134.712 135.023 134.925 137.103C135.616 143.717 136.466 150.304 137.264 156.918C137.423 158.171 137.503 159.451 136.121 160.278ZM92.0584 100.167C96.0182 104.621 99.8717 108.995 103.752 113.315C104.469 114.115 104.788 114.942 104.788 116.008C104.762 121.929 104.762 127.849 104.762 133.77C104.762 134.17 104.762 134.543 104.762 134.863C104.948 134.943 105.001 134.996 105.054 134.996C106.223 135.023 107.366 135.023 108.535 135.023C110.077 135.05 111.007 135.796 110.98 137.023C110.98 138.25 110.05 138.997 108.509 139.023C107.525 139.023 106.516 139.05 105.532 139.023C104.841 138.997 104.496 139.13 104.416 139.957C104.177 142.464 103.831 144.97 103.513 147.477C103.167 150.384 102.848 153.264 102.476 156.278C106.011 156.278 109.492 156.278 112.974 156.251C113.16 156.251 113.452 155.878 113.532 155.611C114.063 154.064 114.515 152.518 115.02 150.971C115.472 149.557 116.455 148.757 117.731 148.731C119.033 148.704 120.096 149.504 120.548 150.944C121.026 152.384 121.531 153.824 121.93 155.318C122.142 156.145 122.541 156.331 123.311 156.305C124.933 156.251 126.554 156.278 128.175 156.278C129.796 156.278 131.417 156.278 133.118 156.278C132.427 150.464 131.736 144.784 131.045 139.023C130.513 139.023 130.088 139.023 129.663 139.023C128.573 139.023 127.484 139.05 126.394 138.997C125.092 138.917 124.321 137.903 124.534 136.677C124.693 135.716 125.464 135.076 126.607 135.05C127.989 135.023 129.371 135.05 130.806 135.05C130.806 134.49 130.806 134.09 130.806 133.69C130.806 127.769 130.806 121.849 130.806 115.928C130.806 114.942 131.098 114.142 131.763 113.422C134.872 109.955 137.955 106.488 141.037 102.994C141.835 102.087 142.659 101.154 143.536 100.167C141.356 98.8072 139.283 97.5004 137.184 96.167C136.546 96.8871 135.908 97.4738 135.43 98.1938C134.394 99.7139 133.012 100.301 131.178 100.114C129.69 99.9806 128.148 100.087 126.66 100.087C126.022 105.901 121.664 108.408 118.076 108.488C113.532 108.595 110.316 105.661 109.067 100.087C108.748 100.087 108.402 100.087 108.03 100.087C106.409 100.087 104.788 100.061 103.167 100.087C102.263 100.087 101.573 99.7939 100.988 99.1006C100.164 98.1138 99.287 97.1538 98.41 96.167C96.3105 97.5004 94.2376 98.8072 92.0584 100.167ZM70.9041 74.3788C102.21 74.3788 133.463 74.3788 164.69 74.3788C164.69 72.6987 164.69 71.0719 164.69 69.4985C133.384 69.4985 102.184 69.4985 70.9041 69.4985C70.9041 71.1519 70.9041 72.7254 70.9041 74.3788ZM109.572 96.087C107.658 93.5802 107.153 90.94 107.26 88.0864C107.26 87.8464 107.047 87.4731 106.835 87.3664C105.984 86.8864 105.639 86.1663 105.665 85.2329C105.718 82.9928 105.745 80.7793 105.798 78.5391C104.283 78.5391 102.609 78.5391 100.908 78.5391C100.882 78.7258 100.828 78.8325 100.828 78.9658C100.828 83.4195 100.828 87.8731 100.828 92.3267C100.828 92.9135 103.327 95.927 103.885 96.087C103.938 96.1137 104.017 96.1137 104.071 96.1137C105.798 96.087 107.552 96.087 109.572 96.087ZM129.716 78.5124C129.849 80.7793 130.009 83.0194 130.141 85.2596C130.195 86.2463 129.769 86.9664 128.839 87.4197C128.6 87.5531 128.361 88.0064 128.387 88.2998C128.494 91.0467 127.882 93.5802 126.288 95.8203C126.261 95.847 126.315 95.927 126.368 96.0603C127.059 96.0603 127.803 95.9537 128.52 96.087C131.045 96.5137 132.958 95.687 134.234 93.4735C134.526 92.9935 134.819 92.4067 134.819 91.8734C134.872 87.7931 134.845 83.6861 134.845 79.6058C134.845 79.2592 134.845 78.8858 134.845 78.4858C132.958 78.5124 131.231 78.5124 129.716 78.5124ZM111.299 87.8198C111.007 90.6733 111.618 93.3668 114.382 95.0736C116.694 96.5137 119.139 96.4604 121.398 94.9669C124.029 93.2335 124.64 90.62 124.295 87.5264C122.594 87.5264 120.92 87.5264 119.245 87.5264C117.837 87.5264 116.481 87.2864 115.286 86.4597C115.1 86.3263 114.781 86.2463 114.595 86.3263C113.505 86.7797 112.442 87.2864 111.299 87.8198ZM90.8625 95.8737C90.9688 95.9003 91.1017 95.9537 91.208 95.9803C92.8291 94.9669 94.4502 93.9269 96.0979 92.9401C96.656 92.6201 96.842 92.2201 96.842 91.58C96.8155 87.5531 96.8155 83.5261 96.8155 79.5258C96.8155 79.2058 96.7889 78.8858 96.7623 78.5391C95.3804 78.5391 94.0782 78.5391 92.6431 78.5391C92.0584 84.3528 91.4472 90.1133 90.8625 95.8737ZM138.965 78.5124C138.911 78.6458 138.832 78.7258 138.832 78.8325C138.832 83.2061 138.805 87.6064 138.832 91.9801C138.832 92.1934 138.911 92.4868 139.071 92.5934C140.851 93.7402 142.685 94.8869 144.492 96.007C144.599 95.9537 144.678 95.9003 144.785 95.8737C144.173 90.0866 143.589 84.2995 142.978 78.5124C141.516 78.5124 140.214 78.5124 138.965 78.5124ZM126.128 83.5261C126.208 81.8727 125.969 80.4059 125.198 79.0725C125.039 78.8058 124.693 78.4858 124.401 78.4858C120.255 78.4591 116.109 78.4324 111.964 78.4858C110.715 78.5124 109.758 79.4192 109.652 80.5659C109.572 81.526 109.625 82.4861 109.625 83.4995C110.741 83.5795 111.698 83.6328 112.522 82.7794C113.877 81.366 115.658 81.4193 117.093 82.7527C117.465 83.0994 117.97 83.4728 118.448 83.4728C120.999 83.5528 123.524 83.5261 126.128 83.5261ZM113.266 100.114C113.346 102.594 115.525 104.541 117.996 104.461C120.468 104.408 122.594 102.354 122.514 100.114C119.431 100.114 116.375 100.114 113.266 100.114ZM96.7623 65.3915C96.842 64.2448 97.0281 63.1247 95.9385 62.378C95.2475 61.8979 94.5034 61.9246 93.8124 62.378C92.6962 63.1247 92.9354 64.2448 92.9886 65.3915C94.2376 65.3915 95.4867 65.3915 96.7623 65.3915ZM142.659 65.4182C142.712 64.1914 142.924 63.018 141.702 62.3246C140.958 61.8979 140.24 61.9779 139.576 62.5113C138.593 63.2847 138.805 64.3514 138.885 65.4448C140.16 65.4182 141.356 65.4182 142.659 65.4182Z" fill="white"/>
<path d="M115.418 160.277C116.375 159.77 116.773 158.89 117.013 157.904C117.199 157.184 117.464 156.464 117.89 155.717C118.155 156.49 118.448 157.264 118.66 158.064C118.899 158.997 119.351 159.77 120.175 160.277C118.607 160.277 117.013 160.277 115.418 160.277Z" fill="white"/>
<path d="M117.81 135.104C118.927 135.104 119.777 135.93 119.804 137.024C119.804 138.117 118.953 138.997 117.89 139.024C116.774 139.05 115.844 138.117 115.844 137.024C115.844 135.93 116.694 135.104 117.81 135.104Z" fill="white"/>
</svg>
